<mxfile host="app.diagrams.net" modified="2024-03-10T03:21:38.436Z" agent="Mozilla/5.0 (Windows NT 10.0; Win64; x64; rv:123.0) Gecko/20100101 Firefox/123.0" etag="TLEmMgPUE-BW-sTMawoo" version="24.0.1" type="device">
  <diagram name="PÃ¡gina-1" id="9dmpAUBJNCnKXcIhPaOg">
    <mxGraphModel dx="1456" dy="330" grid="1" gridSize="10" guides="1" tooltips="1" connect="1" arrows="1" fold="1" page="1" pageScale="1" pageWidth="827" pageHeight="1169" math="0" shadow="0">
      <root>
        <mxCell id="0" />
        <mxCell id="1" parent="0" />
        <mxCell id="t5BiKSE4qo9BICXZ52rH-1" value="" style="shape=image;verticalLabelPosition=bottom;labelBackgroundColor=default;verticalAlign=top;aspect=fixed;imageAspect=0;image=data:image/png,iVBORw0KGgoAAAANSUhEUgAABTMAAAJlCAYAAAAGvmarAAAgAElEQVR4Xuzde8wm2V0f+Oq5eHp8H2MIMY4dHIyzOzGJNGQDO6sYhOOxvQiJRfPHOvkjfyRZrQJEwRNH2lXWIigbYZkkXJxNYqEkWskReLnsLsIeG8E6ymTlEGOSMAuWDbKNw9W3EI8945me3qfe7mpXV1fV+Z26PHX7vDDqnn5Oncvnd+ptv9859TyXnv2h91wtfBEgQIAAAQIECBAgQIAAAQIECBAgQGDlApeEmSuvkOkRIECAAAECBAgQIECAAAECBAgQIHAhIMy0EQgQIECAAAECBAgQIECAAAECBAgQ2ISAMHMTZTJJAgQIECBAgAABAgQIECBAgAABAgSEmfYAAQIECBAgQIAAAQIECBAgQIAAAQKbEBBmbqJMJkmAAAECBAgQIECAAAECBAgQIECAgDDTHiBAgAABAgQIECBAgAABAgQIECBAYBMCwsxNlMkkCRAgQIDAAQSuHmCNW1jipYknqa4Tgw7sTl0Hwq38sinr6l5dR7GnrGm5InXdZ13XsSqzILCYwDbCzKun78CXLhWPv/HvFld+/v3F3T/9D4vbXvqi0zfma3/uiwABAgQIENioQPOHrOv//meLFxd/8uqXF1919VkbXdi+pv0fLz1W/LtLv1/8y9s+EVuYusacFm6lrgsXYKbhs+rqXp2pCtN2m1XTtgDT363TFmSi3rLrOtG4uiGwB4H1h5nXA8sn/pd/UDz1Y+8uiuc+q7j7p95W3Pbir1x1mPm6b/53N/bHu37hT+5hr4TXcOS1h5E0JECAwJEF6j88P339P0qWf3b654XF3cV/f9srimf+1qeL3//N3yge+8ynr73ga0GBS8Wz7nlB8eV/5GXF51/0guJ/f/rfF5+988qt81HXBWs0ZGh1HaK2/msCdXWvrr+MN80wUNNmgOnv1g3UOFjXDazEFAksIbDuMLMKMv+nHyie+on3FsXzn1Pc/aN/p7jtT3xtKMjMDdWq9lOEj7ljL1H8ucYcs/Yx13atZ8o+p+xrLn/9EiBAYNUC1Q/R5Q9a5e+vnH59uvr1UvFdz3xlUXzoN4pH/+WvFL/83k8XH///Pn/t73xfywmcnoJ5yX/5zOJP/bkXFK/85j9V/OonP1y85795wc3zUdfl6jN0ZHUdKrfu61J1da+uu35ts0vVtB5k+rt1O/WN1HU7qzFTAmcXWG+YWQWZ//PfK576P95TFPc8t7j77d9X3PbKV5x+6Dn9LXxb7PHyaPg0ZZBZVjE67tkrfoYBj7z2M/AaggABAtsVqP8QXYaYT17/54u3FcUXLxV/9p4/VHzjpy8Vv/gz/6r4v37w9DizEHNVtb50+sHroX/xF05l+UTxC8/7TPGhP/bMa/NT11XVKXcy6porto32rXV1r26jeB2zdK9uunydk++s6z6Xa1UEJhNYZ5jZF2ReOR3fuP30Q0/wKxqsCTODoIFmUfNAV5oQIECAwF4E6j9EP3UKMU/hZfGF24vi87cVVx87/fr4bcV3f93XFI/94r8tfvqtv1J8/NHH9rLyXa3jld/8NcWf/75XFf/mQ49cO52prruor7ruooy3LOKmut5//TR1eXLP9+DNFty9utnS9U78lrruc5lWRWBSgfWFmRMGmaVUNFgTZk63r6Lm042oJwIECBBYvUAZepU/RJcnMp84/XMKMK/+wR1F8dnTP//p9M/p37//W19RfPDhnyp+9I0fcSpzpQUtT5D80H946PQWAD9d/Njrv/xamKmuK61WfFrqGrfaUsub6vq60/3qXt1S+Vrn6l7dfAljdd3nMq2KwKQC6wszT8t7onqPzPqj5ZknMutKqXAtEmTW+6j33fX+mm1jpuZR9ds1n5w5NMeKjt22u9rG7Xtf0anGao7Rt6Zq3m3zisyny7bst97nmL6meC/WSe9+nREgQOBcAtXpvYsg8/R0RRlkliHm799ZFJ98RlF85o7i6n++o3jL//jSU5j5k8WPfs8pzPS1WoEfefRNF3X6sdd/xbU5qutqa5UzMXXN0dpO25vq6l7dTuF6Zupe3UUZb1nEjbr+t9f/bt3nMq2KwGQC6wkzyxOZT10pnvjeHy6efOfDxaWv/LLi8g/9reL2P/nHT/8jOe/R8qZOKoDqCzObIVcVSHX9eTOQzA3D2ubSNf++deUGkF07qjmflGXZT6RNarymW7Pf6vq2eqRC0PrYqTrm7KWhe2Wyu1lHBAgQWKtAdXqvfLTxC6cw8xRkXv29U4j523cVxenXq58+BZufO4WZb/7Dwsy11rA2r5t+kK4eWVXXDVSuf4rquvkSti7gRl1f+4euPV7uXt18od2rmy9h/70qzNxnga1qcoF1hJnXHy1/+tEPF5//776zuHTHncUz/vZ3FXd+xwOnDwd4qijuPP2QM/IrEvzlnuqL9DlnmNkXHOaGdDm8qbAy9XrfWFHTHNdon5GTk0P7GmOSUxttCRAgsEqBKsws3yfzdALzanki87dOQeZ/vKu4+runUPOzp38/vXfmW37gK4SZqyzgzZO65Qdpdd1A1dJTVNe00RZb3BRmule3WMJb5uxe3UUZu+sqzNxnga1qcoF1hJnlsmY8mRkJ/XKDzKoSuacmU6FW7knI3PGn2EHRNTQDx8jYc4SFUxqN6SvlFvHRhgABApsUKMPM8vHG04f8XJzKLAPM37xcXP3E5aIof/8H1z4A6C1ve6EwcwMFvuWxVXXdQNXSU1TXtNEWW5R1/aV3/2Tx4+XJTPfqFkvYH2b6u3UXNS0X4THz3ZTSQs4ksJ4ws7bgqd8zc01hZu5c2h4X79obue/tOHSPpUK51Ot94wozh1bFdQQIEFixQBlmXjzeeAoty/fHLE9lfux6mPl7p1OZp0fMyw8Fess//jJh5orLWE3tptBLXTdQsdgU1TXmtLVWN8LMB05hpu/BWytf63zdq7soY3dI7WTmPgtsVZMLrC/MnPjTzOtibUFZ23tUVtdEQrkhJ/VS10wRSkbmHt1NfYHq0BOtXWMLM6NV0Y4AAQIbESiDzHqY+ak7i6unx8svwszT6cyLDwE6fSBQ8eTpZOY/eYEwcwNl/dJjq6cPKShPBZUBibpuoHL9U1TXzZewPfj6ldPJzId/qvjxP3e6Xx93r+6hyu7VPVTx1jXcFFKf/mr1RYBAv8D6wsxyvi2B5uV/8n3F7V/3ilEfBtQMyvqCzHIakUAwFUyW/UQCv665RObQVuKh1zX76guAo2vLuQmFmTla2hIgQGADAvUw8/PXf5AuHy//6PWTmZ+swszTycy3CzM3UNEvPQr32uthprpuoWzJOd4SkKhr0mwLDX6kHmZW/+HB9+AtlK5zju7VTZcvXdfXn/5uFWbus8hWNanAOsPMVKD59Okno9vy73BhZt7emSqozRlVmJmjpS0BAgQ2IHAjzDy9X+bpQ36uluFl/Qfp04m+ayczzxNmXr365htoly59bydgs13935sXNfvpaltv19dfqv9r/zPpS+uo2vetZ8qdcvMP0uuoa7W+OerbVY9mDaL7qeyvahud75T16+przXUdsv7Ifdi2b+pjddU0p+8hc5/ymi+FmeVj5st/D55ybV3fC7u+J26pbn1Oa7hXc/4OSv19l3ufdX0P7TPLHaPte3Rq7479O9jJzJSw1wncLLDeMPPa307l/9orbryH5vOfU9z9o3+nuO1PfO2N13IL2nxkOvUJ1nOEa+Wc2x7d7prLkFOWQ65pWu49zGzWIbUXUu2H7pXcPaw9AQIENiXQF2aWj5mXYWZ5AuxMYWbzh9+2Hz7aAqZomBn9oS3VLhWo5PwgOfV+Sf4gvVBdI7WtLHLC6qZf3w+50R+YNxlmLljXnD0cubdy/sNC9D9WdAVoOXOfo21vmLmRmva5TP29eY4aTN3nkt+Dc++v5vflLovU38U534fbxsi9j8s+ymsi653q3hdmTn2n6G/vAusOM69997sWaP6tf1A89ePvLornPqu4+6feVtz24q8cFGiOCTPL6VSBV6qfSJiY6qPafKl2bY+oR8ZPbe7UI+Z1j3pfY8YeGghOcV1zPbmuXXVK1S9VB68TIEBg0wI7CTOrGvSdpOs7qVe9Fgm7Iqc7hJntd0X0pGOqXer1rh/Qoz+QCzPn+a6WOi3bvA9z79nc9vOsMq/XvYeZTY3If4xqC7Mj33fz5OdrvVSYGdn/bcFe1/fT1P2aW9toDVPj9v19Hfm7YWjlhZlD5Vx3VIH1h5m1QPPxN/7d4srPv7+4+6f/YXHbS180KMwsuxsStrWdpOwK86Jj5IZcXXNom8eQNbbdBF0nSPvmPmbsKULJ5gnLyHyi9Z2yr6N+07FuAgQOJnDQMLMr1JoizOw7VRj9YW7MLlzqB+nInKM/aKbapV7vCjPLP4+cABJmRqqZ3yZat6h/2V/XKc7cezx/NdNcIcy8+W05tlK3vuov9T04dX9FQsu+74+pv79SQXXq+so0tY7q+3vqP05Fx4veycLMqJR2BK4JbCPMVC0CBAgQIEBgmwIrDDObQVRuWFEVYswPZc1iRn646vpBLOfaKTbRUj9IR+YetUi1S70eDTPbTtDWA8/IOJF1T9FmzXWNrG+IZe41ue0j8567jTAzHWbOXYOp+1/iXo3u/dzAMdpv19/bOdf3/d0frVHueNF+y3bCzBwtbQkIM+0BAgQIECBAYE6Bg4aZddLI6Y2cH5CczOzesF3hYd8WH3r6pqsOXY+w5v6QP+dt2db3EgHJlGvMuYeqcVNhc3N+ue2nXN/QvoSZ7R+YVnpGvjcPdZ/zuiXu1ej9lfN9Ltpn2/3adro68n0+d8y+7wFT7x9h5px3jb73KLDrk5mX73/DHmtmTTsRePyRd+xkJZZBgACBHoEDhZmlQl+Y1veDT/QHrCGP8U29P5f4QTq6hjWEmVVIEgmdo3WPrn9MuzXXNbKuoZa592xu+8jc52wjzLymu7W69e2JJe7V6P2VCjPb1hUNBYf0XY0XfWuJ1L0YdUj10/a6MHOImmuOLLDrMPPIhbV2AgQIECCwCoGVhpnNH27LH3QiP6Tkton+4Bbpt23OVf/R66fYE0v8IB2dd9Qh1S71elctquvq+6nvh+jIONG1j2235rpG1jbGMhWCR94HtT7HaDgTWdfYNsLMLwnm1nms/VzXL3GvRu+vKQLHLrdU35H7LrqOnDlMVWdh5lSS+jmKgDDzKJW2TgIECBAgsITAAcPMtoAxFXREf8ByMrN/E491zAmHUz9YV30JM8/zjSda+77ZdIVdkQ/uSt3j51G4dRRh5q0muXVeqnZd4245zEz9h4HcJxhy7/vc9s0ajL2+by8JM9d2p5nP2gWEmWuvkPkRIECAAIEtCxw4zKyXLfUDUOr1sq/UqaJzhSlL/CAdvQUijk3Lqd4zs6tGwsxo9ca1i9Y+Okpuf7nto/MY206Y2S+41rqFQq/XfkVRXLmtKD5/W3H1k3cWxScuF8VHLxdXf/P066dO//7524viyUvFW97+guKDD/9k8aPf85HB2ynqlPqPPEO/33Z9347Oq1p4bnth5uAt40ICswsIM2cnNgABAgQIEDiwwIrDzPoPR22PBbdVre8HofK1yAmuoT/MCTPT91H0B9VUu9TrfYFozunZyDjpVU/TYs0hdXSFEc/6fZp7z+a2j857znbCzGv/IWjo9+Y5azO076Xu1dT9lfO9r772VL99QWT02tzxuvbMkPGidXYyMyqlHYFrAsJMO4EAAQIECBCYT2AjYWYdIPcxt+YPWkMeo4v8gJRqk3p9qiIv9YN0ZP5Rg1S71Ot9YWbXPIecWIqseao2a65rdI3NwL/rXmyelo3es1X/0fbRec/Z7khhZlf9t1i3vj2x1L3ad39FXxt676RqexFsnN77OvKV+32i3mfk74bIHNraCDOHyrnuqALCzKNW3roJECBAgMA5BHYSZjZ/+GkLP/vaVO2Hng5K/fDVDNdyfrDL3QZL/SAdmWf0B81Uu9Trc4SZfeuL/pAeMepqs+a65qwr5z7Madt2j7XN6xy1yvHYa5iZql29Dqm2c36/zKlVtO2S9+oQy8g19Rqk2ufWtq2+qTG69kTk74ZoHZvthJlD5Vx3VAFh5lErb90ECBAgQOAcAisPM6OhVCTM7As7UgFH6gek1OtVKaPtxpR+yR+kU/OOrj/VLvV6dN/U55s6mdm3ttT+SblEXl9zXSPzb7bpumdTJ8OqfiL/4aE+5jlqNMThaGHmXurWV+s13Ktt91eufdf9E713+/7Obfrlzi3Sfup7Xpg55Duca44sIMw8cvWtnQABAgQIzC2wgTBzboK99b+GH6T3ZrqG9ajrGqow/Rz2GmZOL7WdHt2r26lVzkyFmTla2hLwnpn2AAECBAgQIDCngDBzTt1F+vaD9CLssw+qrrMTLzKAMHMR9lkHda/OyrtY58LMxegNvFEBJzM3WjjTJkCAAAECmxAQZm6iTDmT9IN0jtZ22qrrdmqVM1NhZo7WNtq6V7dRp9xZCjNzxbQ/uoAw8+g7wPoJECBAgMCcAsLMOXUX6dsP0ouwzz6ous5OvMgAwsxF2Gcd1L06K+9inQszF6M38EYFhJkbLZxpEyBAgACBTQgIMzdRppxJ+kE6R2s7bdV1O7XKmakwM0drG23dq9uoU+4shZm5YtofXUCYefQdYP0ECBAgQGBOAWHmnLqL9O0H6UXYZx9UXWcnXmQAYeYi7LMO6l6dlXexzoWZi9EbeKMCwsyNFs60CRAgQIDAJgSyw8yfKn70jR8piqvlhb7WJnDp0qXih/7DQ8Uvv/enix974MuL4sptRfH524qrn7yzKD5xuSg+erm4+punXz91+vfP314UT14q3vL2FxQffFhd11bL+nzUdc3VGT63i7r++4eKD773/yx+/NVfURRfcK8O11zHle7VddRh6lncVNfXnf5uvTT1CPojsD8BYeb+ampFBAgQIEBgPQIZYeZf+4eXi8c++IvFT7/1V4qPP/rYetZgJjcEXvnNX1P8+e97VfFvPvRI8Z5vfEEozFTX9W8gdV1/jYbM8KKuf/tVxfs/9K+L9/5XX5YMM92rQ5TPe4179bze5xrtprref/q7VZh5LnrjbFhAmLnh4pk6AQIECBBYvUBfmFme5CtP8D127QTfN33308U3vvALxS/+zL8q/u8f/MTpcKbTmWuqb3ly5KF/8RdOdflE8QvP/Uzxoa9+ZnuYqa5rKltyLuqaJNpkgxt1fbq8Xz9bfOglz7o1zHSvbqq27tVNlSs82Zvq+rzT360vO/3dKswM+2l4XAFh5nFrb+UECBAgQGB+gRth5ul/mZePHZ/Cy6vV48jlr+XjydfDzOLU9q/9b5eL2z72seKLX3h+8e5//P8Wv/L//LpQc/4q9Y5Q/qD1J77pjxWv/R++sbj7OZ8rfuV3fvXaqczy64q6LlyewcOr62C6VV/YWtdvKE9Rn+7VL/gevOridUzOvbrFqqXn3FrX//r6qUxhZhpQi8MLCDMPvwUAECBAgACBGQXqYWb1g/R/vKsoPnb9vRV/vwozT++9+HRR3PPyJ4o/843/tnjZ87+yeOEfeVnxrOe/oCj/B7+v5QTKE7KPffbTxSd/8zeK33jst4t//XXPLz737FO9qjBTXZcrzoiR1XUE3oovvaWur7x+v5Zh5uPXw0zfg1dcwVun5l7dVLnCk22t63NOf7eW/5PH/+wJO2p4XAFh5nFrb+UECBAgQOA8AmWg+dT1U0GfuaO4+lvXw8zyZObvncLMz91RFE+cXn/69M/1J8v/i2/7teKlz/9Ucc/jT/kwoPNUqXuUU5j8mWffXnzsBc88Par67KK4+0pR3HG9UOq6dHWGj6+uw+3WfGVbXW8/3a/VyUzfg9dcvfa5uVe3V7PIjLvqKsiM6GlDoBBm2gQECBAgQIDAvAJl7nVxKuh04uCzpzDzd59RFKdPvL543Lz8/R+cTguVr5XB2NUvBZrzTkrvtwhcnAY5FasMKi+fjsk+9xRa/qEvFpde/HhR/JHHi0un3xfPP4XL5WtlOFJ+qev6N5K6rr9GQ2aYU9fbTvdr+R+LfA8eIn2+a3Jq6nvw+eoydqTcugozx4q7/iACwsyDFNoyCRAgQIDAYgJl7lX+IP3F0z//+RRmlo+Wl6czT486XgSbnz39++dPYeaTp39O+dlFoOnr/AJlkHnKlYs7T2HlM0//PP/JawHmVz1RFC96orj05U8WxXNOYeYzTu3KcKT8Utfz1yl3RHXNFdtG+5y6lm3L76u+B6+7tjk19T143bWszy63rv4n0HZqa6aLCggzF+U3OAECBAgQOIBAFWZePJJ8/XTm751CzN8+BZqnX69++vSYefWoudOZy2yI+smRu04Fe/ZTxaUXnILLrziFmX/4FGSWv5anMu8+hZzlyc36D9LqukzNIqOqa0Rpe21y61qFme7V9dY6t6a+B6+3ljcFmad/qZ54iP7dKszcRm3NcnEBYebiJTABAgQIECCwc4Hrh/guHkl+4hRmnj69/OrpcfOiPKH5yVOoWb6H2+nE5sVrT9beO7O6buc8iy+v+rCB8ofjO0//3PV0cak8gXnP6Z8XnkLM04nMS2WQ+azTsdnTazceMa8mrq6Ll7B1Auq6zrqMndWQupbfS8vr3Ktj9ee5fkhN6zNR13nqMrbXoXUVZo6Vd/1BBISZBym0ZRIgQIAAgUUFqtOZFz90nf4pA80/OAWYZaj5n07/nP79xvtmlm0EmectV/nDU/kebNX7ZZbB5fNOAeYpxLz03CrILB9Dv34qs/phS13PW6fc0dQ1V2wb7YfU1b267toOqWm5InXdZ13XvSqzI7AKAWHmKspgEgQIECBAYOcCVThZvsdi+ahj+d5tXzgFmKf3yrxaBZlfvP4hQLVPNd+5ynqWV/4gXZ7MLMPMZ5xOX54+5OdSGWiW751Zfnp5+T6Z9cfL62FmuQp1XU8t6zNR13XWZeyshtTV9+Cx6vNeP6SmVZjpe/C8tRnT+9C6jhnTtQQOIiDMPEihLZMAAQIECCwuUP9hujx9WT5SXv5ThphluFn+2fVTmVedzDxruS5Vj8OVJy/Lf8rwsgw1y8fOy3+qE5nlrJqPwKnrWWuVM5i65mhtp+3gurpXV1vkwTVtBpr+bl1VjUfVdVUrMRkC6xMQZq6vJmZEgAABAgT2K1D/Ybr8ffmD1ykzu/br9cfLBZnL1L/+/l4X4eVpGuWv1cmStiCzmqm6LlOzyKjqGlHaXpuhdXWvrrfWQ2vaDDT93bquGo+p67pWYjYEViUgzFxVOUyGAAECBAgcQKAeVpYBZvWDWPnnF681j/4dwGQVS7weXFY/eJVzqj4xN1IWdV1FFW+dhLqutDAjpzWiru7VkfZzXT6ipvVAs/y9v1vnKtKAfkfWdcCILiFwBAFh5hGqbI0ECBAgQGCtAs1TmE5lLlupZo48NFdW12Xr2BxdXddVj6lmM0Vd3atTVWOafqaoaTPYbPv3aWarl6jAVHWNjqcdgQMICDMPUGRLJECAAAECmxAQZK6jTEMDzK7Zq6u6rkNgn7OY8n51r65jj0xZU0HmOmpazmLquq5nZWZCYBEBYeYi7AYlQIAAAQIECBAgQIAAAQIECBAgQCBXQJiZK6Y9AQIECBAgQIAAAQIECBAgQIAAAQKLCJwtzLz9JS9aZIEGJUCAwDkErnz8t84xjDEIECBAgAABAgQIECBAgMChBYSZhy6/xRMgMJWAMHMqSf0QIECAAAECBAgQIECAAIFuAWGm3UGAAIEJBISZEyDqggABAgQIECBAgAABAgQIJAQWCTP/5mN3KwwBAgR2JfC/furXd7UeiyFAgAABAgQIECBAgAABAmsUEGausSrmRIDA5gSEmZsrmQkTIECAAAECBAgQIECAwAYFhJkbLJopEyCwPoG5w8yXfMcb17doMyJAgAABAgQIECBAgAABAhkCH/+JH8ho3d5UmDmaUAcECBAoCmGmXUCAAAECBAgQIECAAAECBPoFhJl2CAECBFYiIMxcSSFMgwABAgQIECBAgAABAgRWKyDMXG1pTIwAgaMJCDOPVnHrJUCAAAECBAgQIEBgzwJXr169WN7tl9a/yieeeKK4867L65/oaYbCzE2UySQJEDiCgDDzCFW2RgIECBAgQIAAAQIEjiBQBplPP/10Uf76jDtuL8qwcM1fjz/+ePGc5z1/zVO8MTdh5ibKZJIECBxBQJh5hCpbIwECBAgQIECAAAECexeogswrTz11EWg+8+7LF2FmGRiu7evy5WunMYWZM1Xm9pe86EbPf/Oxu2caRbcECBBYRkCYuYy7UQkQIECAAAECBAgQIDClQBlmXrlypXjqyScvfn3Os591I8z89m//9imHGt3Xz//8z9+Ym5OZozlv7UCYOQPqzF3+vT/+Z24a4Xt+7f2hEVPXNV9v67RrrMi1ZX99c4320dZP9Nqc8SOuKdNQYTSaVUCYOSuvzgkQIECAAAECBAgQIHAWgSrMfPIizHyqeO6zny3MnFDeY+YTYurqVoGhAVrqujGBYPTavkBzTB9jrq2EUz5te3HINfb0eQWEmef1NhoBAgQIECBAgAABAgTmELgpzDw9av7c5wgzp3QWZk6pqa9bBIYGaKnrul5vCwqbpxb7+o5cXy4yNb++rbDE+F0BauREp219PgFh5vmsjUSAAAECBAgQIECAAIG5BISZc8le61eYOa/v4XsfGvqlrssJBHPCzGhQmZrf0DBzrvGFmdu4FYWZ26iTWRIgQIAAAQIECBAgQKBPQJg57/4QZs7re/jeh4Z+qeuEmfH3Ik091u505npuU2HmemphJgQIECBAgAABAgQIEBgqIMwcKhe7TpgZc9JqoEAqlOzqNnWdMHNYmFkGlynbgaV22QQCwswJEHVBgAABAgQIECBAgACBhQXmDDMvXbpUlP1P9eXTzKeS7OjHp5nPDDxD90ODs9R10TCz7YaeHgMAACAASURBVNRh9NqKI7ePFOO5x6+PJ8xMVWfZ14WZy/obnQABAgQIECBAgAABAlMIDA0zX/jCFxb33XdfcdtttxVlaFl9lf2V/3z0ox8tfu3Xfu2m15rzzQ06hZlTVLynD2HmzMAzdJ8KJbuGTF0X/QCgnCAy+uE/5ZxT8+ujjM697KPrEfDo+M0gs5pX9PoZtoQuewSEmbYHAQIECBAgQIAAAQIEti8wNMx83eteV7z2ta/tBfhn/+yfFR/84Ac72+Se3BRmzrzfhJkzA8/Q/dDQLHVd6n0gc4LArmX3vZdkZPyuOYy5NjeMFGbOsKln7FKYOSOurgkQIECAAAECBAgQIHAmgTFh5mte85rizW9+c/HEE09czLYKJ//SX/pLxdd+7dde/Nk73/nO4nd/93cvXnv66acvTm2Wv//c5z5X/M7v/M6NayLLFWZGlEa0EWaOwFvo0lQo2TWt1HWRQDB6qnGvYeYUj7MvtG0OO6ww87Clt3ACBAgQIECAAAECBHYkMDTMfP3rX1888MADxUMPPVQ8+eSTN4l8z/d8T3HHHXcUn/rUp4qv+7qva9Uqg81//s//efHLv/zL4UBTmDnzxhNmzgw8Q/epUHKqMLMKLiOPikcf8845mZnzieDnGr/rVGZlPrQ2M2wTXV4XEGbaCgQIECBAgAABAgQIENi+wNAws3rM/E1vetMtJzPf+MY3Fk899VTx9re/vfjLf/kvF3/0j/7R4pFHHil+6Zd+6eI9Nv/0n/7TxTd8wzdc4P3Tf/pPw4GmMHPm/SbMnBl4hu6HBmap63JOHTaDxjHXThEEnmv8yOnVeslzAtkZtoouTwLCTNuAAAECBAgQIECAAAEC2xcYGmZWJzPbwsy//tf/+kWAWZ6+LB8pL//5whe+ULzlLW8pPv3pT1+81+arX/3q4rd/+7eLl7zkJUX13pqp99AUZs6834SZMwPP0H0qlOwaMnXdmNfPFSYOWVtqXdEwNTfIrPoVaM5wE2R0KczMwNKUAAECBAgQIECAAAECKxWYMsyslli+X+bLXvayi1OY5dfznve8i5OY/+gf/aOLTzj/1m/91uKbvumbir/xN/5G8Rf/4l+8eBS9fOS8/LCgvkBTmDnzJhJmzgw8Q/fRcK45dOq6Ma/nhJnlvHI+ET1CeI7xU4+YR0PRyHq0mU5AmDmdpZ4IECBAgAABAgQIECCwlMAcYWZzLS9+8Ysv3lvzbW97W/HhD3+4+LZv+7biW77lW4qPfvSjxTOe8YziRS960cUHA1VhZ5eFMHPmXSLMnBl4hu5ToWPXkKnrxrw+5topQsC5x0/1XzePvMfoDNtClx0CwkxbgwABAgQIECBAgAABAtsXmCPMLE9Xll/VKcuv+ZqvKb7zO7+z+OEf/uHiIx/5SPGKV7zi4jHzy5cvX4SYX/ziF4uXv/zlxXvf+97iZ37mZzpRhZkz7zdh5szAM3SfE6z1hWxj3vey7Ld+fWpOkYAv1UcfZeraseNHT2VOEczOsGUO3aUw89Dlt3gCBAgQIECAAAECBHYiMEeYWdHUw8zv+q7vKn7oh36o+PVf//Vb5Mp2f//v//3i4YcfLt71rncJMxsCl579ofdcPcd+E2aeQ3naMXLfu7HrU8lTYWbfrFPXDnmMfOi6ynmmwsxIm+ij6pH3wIzMZ9pdobcuAWGmvUGAAAECBAgQIECAAIHtC5wzzKxOZpbvpVmOW33dddddxfd///cX7373u4WZLVtKmLn9+2y2FQwN/VIBW7TfIUFlW5hY/lnf6c4UYM7J0CHjt4XAkSCzmnfKO7U+r08jIMycxlEvBAgQIECAAAECBAgQWFJgiTCz+SE/ZZhZftJ5eTLzZ3/2Zzs5PGY+805xMnNmYN0TILCogDBzUX6DEyBAgAABAgQIECBAYBIBYeYkjJ2dfPwnfmD0AE5mjibUAQECBIpCmGkXECBAgAABAgQIECBAYPsCwsx5ayjMnNdX7wQIEAgLCDPDVBoSIECAAAECBAgQIEBgtQJDw8zXve51xWtf+9riTW96U/HEE0+0rq/5AUDVe2Z6zDxvOziZmeelNQECBFoFhJk2BgECBAgQIECAAAECBLYvMDTMfP3rX1888MADxUMPPVQ8+eSTvRAve9nLiu/+7u8uyjCz/DRzYWbevhFm5nlpTYAAAWGmPUCAAAECBAgQIECAAIGdCgwNM8uTma95zWuKN7/5za0nM8vAsvzU8qeffrr46q/+6uKv/JW/UrztbW8rPvKRjwgzM/eSMDMTTHMCBAi0CTiZaV8QIECAAAECBAgQIEBg+wJjwszyMfPy+jK4bH6VIebjjz9eXL58+SLULL9+5Ed+pPjwhz/cGWa++93vLt71rnd1ovo085n3m08znxlY9wQILCogzFyU3+AECBAgQIAAAQIECBCYRGBomPnCF76wuO+++4rbb7/9pnlUj5B/2Zd9WfH1X//1xfvf//7iU5/61MXpzUceeaT1kfQ777yzeOtb31o8/PDDxc/+7M8KMxsCTmZOstV1QoDA0QWEmUffAdZPgAABAgQIECBAgMAeBIaGmam1f9VXfdXF+2n+4A/+YPHRj370ovkznvGM1lOcd911V/G93/u9xXve8x4nM1tghZmp3eZ1AgQIBASEmQEkTQgQIECAAAECBAgQILBygaFhZtuj5eVSq5OZL3/5y4u/+lf/atbqPWbeziXMzNpGGhMgQKBdQJhpZxAgQIAAAQIECBAgQGD7AkPDzNTKy9OW999/f1H+2hV8Vn2UcyjfY/MDH/hA8clPfrKza++ZmVIf+br3zBwJ6HICBFYtIMxcdXlMjgABAgQIECBAgAABAiGBucLM0OCZjYSZmWC5zasw88qv/npx5Vc/knu59gQIEFi1wO1f/8pZ5/eS73jjrP3rnAABAgQIECBAgAABAgSKi08jv3LlysUH81x56qniuc959sWH9ZSfRP7t3/7tqyISZs5cjjLMFGTOjKx7AgQWExBmLkZvYAIECBAgQIAAAQIECEwmIMycjLK1o4//xA+MHuBs75lZPPYFJzJHl0sHBAisVUCYudbKmBcBAgQIECBAgAABAgTiAsLMuNWQlpsKM+vvmTlksa4hQIDAWgXKU+fFs+6edXoeM5+VV+cECBAgQIAAAQIECBC4EBBmzrsRhJnz+uqdAAECSYHq7TOczExSaUCAAAECBAgQIECAAIHVCwgz5y2RMHNeX70TIECgV6D+PsDCTJuFAAECBAgQIECAAAEC2xcQZs5bw82GmVc+/lvzyuidAAECZxC48m//w41RhJlnADcEAQIECBAgQIAAAQIEZhYQZs4LLMyc11fvBAgQ6BUQZtogBAgQIECAAAECBAgQ2JeAMHPeegoz5/XVOwECBISZ9gABAgQIECBAgAABAgQOJCDMnLfYwsx5ffVOgAABYaY9QIAAAQIECBAgQIAAgQMJdIWZJcFdd921OoknnniiePzxx4vnPO/5q5tb24SEmZsok0kSILBXAY+Z77Wy1kWAAAECBAgQIECAwFEF+sLMtZoIM2eqzO0vedGNnn0A0EzIuiVA4KwCwsyzchuMAAECBAgQIECAAAECswvcFGZeeaq46847L04+rv3LycwZKiTMnAFVlwQILCogzFyU3+AECBAgQIAAAQIECBCYXKAKM5968sniypUrxdXT/5X/v6qvS0Vx6fR/t99+e3HHKWwtf7106fSHG/jymPkGimSKBAjsV0CYud/aWhkBAgQIECBAgAABAscUKMPMp59+urjy1FMXv64tx6yqUkaXt912W3H7HXdc/CrMnGG/Opk5A6ouCRBYVECYuSi/wQkQIECAAAECBAgQIDCLQBVolr+u+asMMLcUZJaWTmaueUeZGwECuxcQZu6+xBZIgAABAgQIECBAgMBBBdYeZFZl2cqJzGq+wsyD3lCWTYDAOgSEmeuog1kQIECAAAECBAgQIECAwDYEhJnbqJNZEiCwUwFh5k4La1kECBAgQIAAAQIECBAgMIuAMHMWVp0SIEAgJiDMjDlpRYAAAQIECBAgQIAAAQIESgFhpn1AgACBBQWEmQviG5oAAQIECBAgQIAAAQIENicgzNxcyUyYAIE9CQgz91RNayFAgAABAgQIECBAgACBuQWEmXML658AAQI9AsJM24MAAQIECBAgQIAAAQIECMQFhJlxKy0JECAwuYAwc3JSHRIgQIAAAQIECBAgQIDAjgWEmSsp7uX733Axk8cfecdKZmQaBAicQ0CYeQ5lYxAgQIAAAQIECBAgQIDAXgSEmTNXMhpSRtvNPF3dEyBwZgFh5pnBDUeAAAECBAgQIECAAAECmxYQZs5cviqkLIfpO3UpzJy5ELonsFIBYeZKC2NaBAgQIECAAAECBAgQILBKAWHmjGUpA8oywIwElZE2U031nGNNNWf9ENirgDBzr5W1LgIECBAgQIAAAQIECBCYQ0CYOYfq9T6FmTPi6prATgSEmTsppGUQIECAAAECBAgQIECAwFkEDh9m1h8D7xPP/WCeKsis+kydhoy+Xp9j25ya/XT9e3Otzb6aLqn1tzmmrjnLDjcIgZULCDNXXiDTI0CAAAECBAgQIECAAIFVCRw+zCyrkQo0h4RyU4WZXSFn5M+bc8gJVutrjgatQ5xWdTeYDIEFBISZC6AbkgABAgQIECBAgAABAgQ2KyDMnCHMHBIiRsLJ5i5ruybygUOpcLJtN/ddM6S/zd4xJk5gYgFh5sSguiNAgAABAgQIECBAgACBXQsIM6+Xt+t05pDThlOFmamQsC/MnPqT04WZu/4+YHELCggzF8Q3NAECBAgQIECAAAECBAhsTkCYuYEwM7Wrch4JL/tKhaRt40XCzOq6IQFwao1eJ7BXAWHmXitrXQQIECBAgAABAgQIECAwh4Aws6aa+6E3faFfqlhdH7iTG0w2x4kElTltmv1HTnwKNVPV9zqBLwkIM+0GAgQIECBAgAABAgQIECAQFxBmzhBmRgK/NYeZQx9frygj79sZ36JaEti3gDBz3/W1OgIECBAgQIAAAQIECBCYVkCY2fCMnFrsK0HX+2XWr4mGhUPmErkm8sh4JGxNOZSve+R82htWb/sTEGbur6ZWRIAAAQIECBAgQIAAAQLzCQgzJwwzI0FmOVw0zOxqOzZEFGbOd0PpmUCugDAzV0x7AgQIECBAgAABAgQIEDiygDCzJcwceppwzjCznGbbvJpjznEyM/XY+JA5HPmms3YCdQFhpv1AYBsCj770weLej71zG5Nd2Swffeurinsfet9ZZlWOVX2da8yzLMwgBAgQIECAAAECNwSEmRNthmiQWQ3XDB1TIWTzw4mqfoY+Dt73YUddr/WFmlN8eNJEpdANgU0JCDM3VS6TPbBAX5hZvtb8ags+m+26wtG+dm1j3QjvTmFrKnStXh865/pY0e2QE2bmtO0bf6p+omvUjgABAgQIECBA4HwCwszzWRuJAAECtwgIM20KAusS6AoDU2FmM5hstm+7vuvPSpF6f7lzirRvm19z3PLfU+FopHo5wWJO2zFh5hTriqxdGwIECBAgQIAAgekFhJnTm+qRAAECYQFhZphKQwKzClQnFftOS+a+1jwF2XVaMxJcti0+J2AdE66Ofbw+J6DMaTsmzKyC2rYAd9aNpnMCBAgQIECAAIHRAsLM0YQ6IECAwHABYeZwO1cSmEogFWRWwdeYMDNybe5pwVSYWQV1bevLOSk6VZjZ936W9deada3e+zLSpro2GopGaj/VPtMPAQIECBAgQIDANALCzGkc9UKAAIFBAsLMQWwuIjCZQDTMSgWHfacuo9dOGWbWA9hIcNnl0PUenTkBZxVC1j+Qpyts7Ash6/00f9/8sJ9omFk5VcHvZBtLRwQIECBAgAABArMJCDNno9UxAQIE0gLCzLSRFgTmEogGmfVgsG0uqfeoXCrM7Jt3M6SMnBwdWoe2YHFomFk/pdn2+2qOOWGmQHNoZV1HgAABAgQIEFhGQJi5jLtRCRAgcCEgzLQRCCwrEA00o4FkfTX198yMhIVTn8xMhZmR05W5c2oNe9/6qiJ6cjJ1MnOOMDO6B5bdqUYnQIAAAQIECBCoBISZ9gIBAgQWFBBmLohvaALXBcaGWV2PcZfdl4Fh38nNqk0VPNb/PVWgSNCYOjU6xRjJPlYcZo6tfWrtXidAgAABAgQIEJheQJg5vakeCRAgEBYQZoapNCQwq0Aq1Op7ve2TwpuhZOR9K6tAs3lickwgOebarvnkFiL3MfMLu4fed8sw9X66fl9dFHnMPFXz3HVqT4AAAQIECBAgcB4BYeZ5nI1CgACBVgFhpo1BYF0C0VOU9Vm3fUhO1wcC1a/re/Q82i71qPgUYWZbhVLj3uSTcTLzIkA9tb9p/deDzUiY2fWJ57c85v7SBy9OzfoiQIAAAQIECBDYnoAwc3s1M2MCBHYkIMzcUTEthQABAgQIECBAgAABAgRmFxBmzk5sAAIECHQLCDPtDgIECBAgQIAAAQIECBAgEBcQZsattCRAgMDkAsLMyUl1SIAAAQIECBAgQIAAAQI7FhBm7ri4lkaAwPoFhJnrr5EZEiBAgAABAgQIECBAgMB6BISZ66mFmRAgcEABYeYBi27JBAgQIECAAAECBAgQIDBYQJg5mM6FBAgQGC8gzBxvqAcCBAgQIECAAAECBAgQOI6AMPM4tbZSAgRWKCDMXGFRTIkAAQIECBAgQIAAAQIEVisgzFxtadY9scv3v+Figo8/8o51T9TsCKxcQJi58gKZ3uEFHn3pg8W9H3vnWRzKsaqvMWP+3HsevtHPq1/zwFnmPsUgn/nANed77nuwqP9+ir6bfZxzrDnmr08CBAgQIECAwJEFhJkjq1+Fel3d1MO+PQWA515L01mIOnLjunw1AsLM1ZTCRAi0CuSEmTlt+7in6qcMNYWZ7dLCTDc8AQIECBAgQGC7AsLMEbU7d6A3YqqTXrrUupcad1I8nRFoCAgzbQkC6xJ49K2vKu596H03JpUTLOa0FWbeKnDOgDEyVnMvrGunmg0BAgQIECBA4LgCwswRtT9quLbUupcad8QWcSmBpIAwM0mkAYGzCJTBVflVDzLLf88JKHPaCjPXH2Ze1L9jX5xlUxqEAAECBAgQIECgVUCYOWJjHDVcW2rdS407You4lEBSQJiZJNKAwOwCfYFVFVD2vZ9l/bXmZKv3voy0qa6dKhSNPGbe9/6a1fWp9+Csv15f/1yPuFenKquxyvfYrH+lXs/dUALNXDHtCRAgQIAAAQLzCggzR/jmhGt9bdved7PrPSHr/fS9j2T0PSaj/dWZUuvOWU8Of2rcnL60JbAWAWHmWiphHkcVSAVVVQhZ/0CerrCxL4Ss99P8ffPDfs4VZjbDzrZ/L/dFPZRMXVO2b7apjNv2WPMkbGoflkFlPbxsflBQ8/VUf9HXU/sk2o92BAgQIECAAAEC4wWEmQMNc4K1SJAZ+aCgZvDYdU3Zbsr+okFm1zpzrLrKMUUfA0vtMgKzCggzZ+XVOYFegUhA1RYsDg0z66c0235fTfZcYWYTZ0hQ2Xb6M3IidMjW7Aoq638+56egR/bLkHW5hgABAgQIECBAIE9AmJnndaP1FJ9iPjTkLCfRPLlZn0/XaznXlGO0zW9IYDlFEDlFHwNL7TICswoIM2fl1TmBpEAqoNpzmNn2eHjfKcwSc0jgmSxCsEHz8fH6ZW2nNavXm4+hB4e7qVlqnwzp0zUECBAgQIAAAQLDBISZw9xag76urnJCwaqP3Gtyg9GusLK+hugcIkFjpE1fKcZeP7DMLiMwu4Awc3ZiAxBICkTeM7PeyR5OZkZOVEbbNIGb75U51WPmQx8hH3pdtS5BZvIW0oAAAQIECBAgcFYBYeZA7pxwrS8UTA0feVw8FUwOOU3Z1Wc04GyuK8erzWTs9SlnrxNYSkCYuZS8cQncLJDzaeZ9YWbZa/M9MMs/q1/T9fsb4dlLH2ztI7dmfY97D3l/zHL8yMnM3HlG2w99hHxMmCnIjFZHOwIECBAgQIDA+QSEmQOsc4K1oeFfThjoVOaAIrqEwEoEhJkrKYRpELguUIZX9Q+lyXnMvAot65ip98lsBptthWgLR/sKFv108eanlEeCyq4QtDmfuT7JvByn7XHz6lHyvtdyN3lzL+Rerz0BAgQIECBAgMA8AsLMAa7CzHfcUItYRNr0lWHs9QNK7BICZxMQZp6N2kAECMwg0HX6c64PAZphCbokQIAAAQIECBDYmIAwc0DBcsI1JzPbP0gohz3HO6dfbQmsQUCYuYYqmAMBAkMFhJlD5VxHgAABAgQIECAwVECYOUAuJ1xLvV9m8xPGu6Yz5FHysq8h75eZc03KIvV6hH+KPiLjaENgCQFh5hLqxiRAYEqB1KeiTzmWvggQIECAAAECBAgIMzP3QE6wFgkgy+GbgWZ53Tk++KdaemSsyFra1tG2vhzyHO+cfrUlsBYBYeZaKmEeBAgQIECAAAECBAgQILAFAWFmZpWqcK3vsirUSwVxXX3lhIJjQ8a2ObSdFh2yluip0z7L1LiZ5dOcwOoEhJmrK4kJESBAgAABAgQIECBAgMCKBYSZMxZnrUHcWuc1Yyl0TWC1AsLM1ZbGxAgQIECAAAECBAgQIEBghQLCzBmL0nxcfMahsroWZmZxaUxgVgFh5qy8OidAgAABAgQIECBAgACBnQkIMycqaM77XE405KBuBJmD2FxEYDYBYeZstDomMInAoy99sLj3Y++cpK8hnSw9/pA5u4YAAQIECBAgQIDAnALCzAl1m+8/OcV7Rk44vYuuhJlTi+qPwDgBYeY4P1cTmFtg6TBx6fHn9tU/AQIECBAgQIAAgVwBYWaumPYECBCYUECYOSGmrghMIPDoW19V3PvQ+270tHSY2DZ+c44TLFsXBAgQIECAAAECBDYjIMzcTKlMlACBPQoIM/dYVWvaokAZEJZf9SCz/Pc1hpkX8+qY7xbtzZkAAQIECBAgQIBAjoAwM0dLWwIECEwsIMycGFR3BAYI9AWDVZhZ/lp9db2HZr3NRTDa8l6bU/Uj0BxQaJcQIECAAAECBAjsQkCYuYsyWgQBAlsVEGZutXLmvReB1AnHKnysB5Otj343Pigocl20n74PIErNfy91sg4CBAgQIECAAAEClYAw014gQIDAggLCzAXxDX14gUgQOCZwTD2i3nw9MlZb0SLrOHyxARAgQIAAAQIECOxGQJi5m1JaCAECWxQQZm6xaua8J4FUEBgJGJuPl9d9mic6m3a5Jz6b16fmv6daWQsBAgQIECBAgACBUkCYaR8QIEBgQQFh5oL4hiZwXSDynpl1rMiJyltCx8Zj6OXrkX76TncKMm1hAgQIECBAgACBIwoIM49YdWsmQGA1AsLM1ZTCRA4ukPNp5m0hZMnX+96WwffUrPfT9r6bVZkEmQffsJZPgAABAgQIEDiwgDDzwMW3dAIElhcQZi5fAzMgUBcoQ8J7H3rfjT+KPGZ+I2CsfeJ59Wddj5mXf97Vd/3a1jaNOaogAQIECBAgQIAAgSMJCDOPVG1rJUBgdQLCzNWVxIQIECBAgAABAgQIECBAYMUCwswVF8fUCBDYv4Awc/81tkICBAgQIECAAAECBAgQmE5AmDmdpZ4IECCQLSDMzCZzAQECBAgQIECAAAECBAgcWECYeeDiWzoBAssLCDOXr4EZECBAgAABAgQIECBAgMB2BISZ26mVmRIgsEMBYeYOi2pJBAgQIECAAAECBAgQIDCbgDBzNlodEyBAIC0gzEwbaUGAAAECBAgQIECAAAECBCoBYaa9QIAAgQUFhJkL4huaAAECBAgQIECAAAECBDYnIMzcXMlMmACBPQkIM/dUTWshsB2Bn3vPw8WrX/PAdiY88Uw/84F3XvR4z30PFvXfTzzM2bvb67rODmlAAgQIECBAYNUCwsxVl8fkCBDYu4Awc+8Vtj4CNws8+tIHi3s/di1IW/Jry2HmFHNPhX7l62XQ2fyq/3nVR1sd69d2tWvrv29PNPvpmt8eQ9ol7xVjEyBAgAABAusTEGauryZmRIDAgQSEmQcqtqVuQuDRt76quPeh9802V2HmeNq1hJn1lXSFn2WbvteiGm19dP1ZKsyce49H16QdAQIECBAgQGCogDBzqJzrCBAgMIGAMHMCRF0QmECgDHjKrzmDzLJ/Yeb4YgkzrxkODTMv9uGZ9vv4auuBAAECBAgQIHCrgDDTriBAgMCCAsLMBfENTeC6QF+wU4aPXV/Nx8WbbeuvD+1nzCPpZehX/6q/R2YVCNbbdL2HZqpNpK++udTnmJpzVy2mfv/PyGPm9bmc42RmOV71aPkU7/Mp0PQtkAABAgQIENiqgDBzq5UzbwIEdiEgzNxFGS1iwwKpQKcKIctQsfn7ZljZFl62BZ59AWXz5ObQk5yp04tVaNgWcDbDxUib8pqudqm5VOM127XNsWzb119Vz7YtmXPqdm1hZrWeKULMuk1q/2/41jZ1AgQIECBAYMcCwsyZi3v5/jdcjPD4I++YfKQ5+558sh0d7mEN57Iyzj4FhJn7rKtVbUMgEuTUw8TI728Kilo+7Cc3nMxtnwr7uoLDqa+rB45doWTdqiugbPvzaDg6ZhdOHWa2zSX1IUHND/hpfvhQ7gcIdXlE7oMxlq4lQIAAAQIECEwtIMycWrTRXxXWzRVozjx93RMgMLOAMHNmYN0TSAikgpxIgJn7CHnqZGZzyrmPmkfCvmhI2Hzsu5xb85Hu6Hj1dbX10VWqIeON3fhTh5ljg8foBwDlrju1/3P7054AAQIECBAgcA4BYeaMymWQWZ7IdPpwRmRdE9i4gDBz4wU0/V0IpN4zswoTI8FmCqTvpGXba0uezMwJPHPfs7LtkfJoH0d8zHyOMFOQmbpbvU6AAAECBAisVUCYOWNlhJkz4uqawE4EhJk7e3apXAAAIABJREFUKaRlbF6gK9iJBJj199JMQfS1bXu/zLK/ISczy+v6wsFIUDnFe1h2eUT7brs+8th6qg6p19vem3Loh/z0XZeaR/V67nxS/QoyU0JeJ0CAAAECBNYscPgwc65Tk1WQWRU/NU7z9frj6WUfbe+52dVnTl+Rccrxo+3qm715TfVafS1Rl3q/Xe8/mrPu5k3ZNtfUOJE5rfnmN7d1CAgz11EHsyBQCZQhT/2DYiJh5o1rWz75vC2IjH7qefWhQ7lhZjWf1CeDRx7fbn6SeSQEbe6myKPqXXMu/7wtlI1+OvqYnV0FiFUffY+KDw06c+aXM5++fpt7PGcO2hIgQIAAAQIE1iAgzLz+AT1tQduYAo0JM6PXRsLMvr5yxhkaQKY++Ci1hrIGbWM3/7z893pfOWtL9VXfB6nwdcyece0xBYSZx6y7VRMgQIAAAQIECBAgQIDAMAFhZiPMnCLUbAZpVZ99QVjfBwWlAr9mYBjpKyfAa9takbWkgsxmABkNDVMeOWvLXYcwc9g3Gld1Cwgz7Q4CBAgQIECAAAECBAgQIBAXEGZ2hJljQs0xYeaYx8lzQtOccXLCzNywr619pI/c63LbdwWtkbnFbz8tCRSFMNMuIECAAAECBAgQIECAAAECcQFhZiLMHBJqCjPb3+MzGopGAsPccLKvfep26XrMvbwucvo01b/Xjy0gzDx2/a2eAAECBAgQIECAAAECBPIEhJmBMDMnsGr7IJm2knQ9Gp5zYjL1uHVOX+UcI49cN9eSs461hpk59a3W0KzzkD7yblWt9yogzNxrZa2LAAECBAgQIECAAAECBOYQEGb2hJlDAqquU5nNECwnBMwNLSOhZE7QmXMKMnKqsr6Rc/oec93QcVI3Xd/7k6au9TqBUkCYaR8QIECAAAECBAgQIECAAIG4gDCzJcwcEmLWw8rU9bnB2pJh5pRjt23LXIu+UDg3xM0NXrtuq6n6id+2Wu5JQJi5p2paCwECBAgQIECAAAECBAjMLSDMrIWZqRAyVYzUqcwpg7iyr9ygse+artemHqNpOGX/uWFmyiNV7756Rq/VjoAw0x4gQIDANYHPfOCdF7/ec9+DN/0+16feT+61W28/leHWHeae/1TOQ/ZqeU15j+R8Dbkm2v/cfVffE6LzWbrdHmraZjhkXWvvp1rTlvbYFue89D1p/P0KCDNPYebYELMeakX6yj2NmBv4DQn1yjVE55V6tLrv9Wbgm1pbOa+uD+CZ8lH95jhdNY3Of7/fMqxsagFh5tSi+iOwboFHX/pgce/HroV2vm4WWDIg2kotUsHRVIbn9vi59zxcvPo1D5xl2CnGmsp5SEDUtQf69kZq34yBn7vvLQVN5Vz3UNO2/TBkXWP6Se2rqeZT1Sz3PxCMuWemuDblM8UYVR/nHGvKeetr/wKHDzOnKnH0VGY1XjPEGxJApoLAnPfFLOeV6q+ae9VvTqjZvLbLoVmP+hhdfUT6Sj0K3jZO2W+fYWo+U+0t/exbQJi57/pa3fYEHn3rq4p7H3rfbBMXZnbTThUQzVa8FXSc+qFyq4ZTBIzR8kwx1pLORwozozXderu11XQNnqnvdVPO8ZxjTTXvc875nGNN5aOfYwgIM49RZ6skQGClAsLMlRbGtA4nUIaY5decQWbZvzBTmDnm5kr9ULlkyDZmXVMEjNHxpxhrSee1BV+pPRmty5Hbra2ma6jFOffVOceayvaccz7nWFP56OcYAsLMY9TZKgkQWKmAMHOlhTGtQwn0BZll+Nj11XxcvNm2/vrQfoY8kl6FNeWv1VfXI7x9beqvNQ2a/TXbzvHIcOQH/ipkKuebemyw3rbZPjpW/f09K6O2cfvGKq+rxuuaf/P6ej1S6xx6M0dq2tcmsg+n2mNTjzXUrLouun/69kx9Dqm92jXfam+k9lfuelP7udrTXfv0nD71moy5b84558j9PnVN+/ZA5PtqZD7RfiL7eci90/W9coqwLnJPpO6Ltr06Zs6pOXXts/r3jVQtmnOe6++j3O9R2h9DQJh5jDpbJQECKxUQZq60MKZ1GIHUicwqhCxDxebvm2FlW3jZFnj2BZTNk5tDTnJWAVE9UGw7jdb8s7Z/LzdC2U+9z5zryusr47ZNlXMStn4aLvUDVOqH0+brzb5zgov6D29dc4y0KdfUbNf8wTC1rqlu3Mjpxb79Us4jug+rtn0B+LnGmnKvdoXauTVt26vRvvvuk657oG0P9e3Ltj0Zub/a9nvzz6rwpy8gidwTqflE7pvI94S6d86cc/rOqWlkXTlt+qwj3/uiPpG6R9pMce9EfCJ7MDLftjZD9kZXP/X7K3Lf5tar7f6N+GlDYKiAMHOonOsIECAwgYAwcwJEXRAYKJAKMstu62Fi5Pf1qbQFkbnhZG77cvxIcNlG1hdS1l/r+n29z0gYNqRsU/xwGvnhsN4m8vv6Wrrad7Xp+iE354fNIZZd10Rq19UmtTci1zXnFbkmZ89H1jfWM2fPpAKiaPg5VT99a4/sycj91bbno9f13Udtc4/2W4Vx9T66QtzUPT5VLabqZ+x+rq6faj6R8G+qNpH9khorsjfKcXIC7GhNovs3d52RezlS9+g6tCMwh4Awcw5VfRIgQCAoIMwMQmlGYCaBVKAZCTBzHyFPncxsLjX3UfNosNP2iG/Xac6+MLOrNOd41HzoD3pdc257LLd6lLz+a1sY0/aDX3R+qR+mz/lDZSTsO2fAGHkUPbrnS8fI+sZ+u6nq2fVrJHjo2mPRPZUaI7rncvtpC36qPnJPePbdZ6nX6vdM6n6P1HuvNY2sPfL9Z+pwLLI/U21SIWRkXVGf5ljR/wjR7H+KOUfuwanrFXXSjsCUAsLMKTX1RYAAgUwBYWYmmOYEZhBIvWdmFSZGgs3U9PpOWk5xkrMcPxLs5LbJPZlZd5jq0d3mD565p4RyfnCNBBeRUCnSJhrK5LRL7cO+1yNh37nDzFQwHtnP1Zr71jfVXo3sn8h+nCpwiPQzVQCSCpjqe6/p1LYvh97nEd+c+2SLNc1ZX6Rtbi2i3/9y6x6pbWTPR/qJuETmH7kvpppzdKzmvMe8P+dQJ9cRGCMgzByj51oCBAiMFBBmjgR0OYGJBLoCzUiAWX8vzdR0+tq2vV9m2d8cJzNT70FYjhsJMNveFzFlMPb1KQKQcg6RRwL7TtZFfvCsAqKp3guzrb+xns3rIzVta9P3NgXVGH0haNmmLbSMzqftQ6mG9jfWdMrgq75X++qfem3oSbG6RXOMrv2dur+qPs91L0fn01f3Lde0HlSP+YCWc4eZqbrlzCf3/pjqe0B9r+euZ+icI39PRALP3LlX7cfssbHurj+WgDDzWPW2WgIEViYgzFxZQUzn8AJlqFn/UJpImFmhtT1u3hZERj/1vPrQoTnCzHLO9cd3qw/5yX3MvB5SNTdP6jTd0M2W+gGvrd/IJ4ynQqPmD39tJ9ki4+R+eEtzPc1x5/rBsfl4d+4n2Oeclmzux/LfU+PV20w91tC92ffDf2T/tIUdzSAqFeDU595824T6azlhRvO6emjRd/qu6dgWqLatufyztvsr2jZyH3b11VX7yH+YiM753DUdG2ZG1pXzH3dS+6J5H9X3W87eSDlH1hX5XhD9u6Bt7l33RLU/h37f6HKqf0+I/l05ZN4RN20IjBUQZo4VdD0BAgRGCAgzR+C5lAABAgsKDA2DFpyyoQkQOKhA5LTeQWkOuey+/wgx9D+Q2WOH3EqLLlqYuSi/wQkQOLqAMPPoO8D6CRDYqoAwc6uVM28CxxIQMh2r3pHVTh1m2mMRdW2mFhBmTi2qPwIECGQICDMzsDQlQIDAigSEmSsqhqkQINAqIGSyMboEch6P71O0x+yxpQSEmUvJG5cAAQInAWGmbUCAAAECBAgQIECAAAECBOICwsy4lZYECBCYXECYOTmpDgkQIECAAAECBAgQIEBgxwLCzB0X19IIEFi/gDBz/TUyQwIECBAgQIAAAQIECBBYj4Awcz21MBMCBA4oIMw8YNEtmQABAgQIECBAgAABAgQGCwgzB9O5kAABAuMFhJnjDfVAYA0CU7wBfv3N+O+578E1LKuYYl1DFjJm3DHXDplr7jVDPzhoinWtcY/l+mlPgAABAgQIEBBm2gMECBBYUECYuSC+oQlkCKQCqGjQlOqnnFKkTcbUb2naN9fma9F19c0n9xNTx4459voxtqlrU/Z9IXZ0XZH9E2mTWovXCRAgQIAAAQJLCQgzl5I3LgECBE4CwkzbgMC6BLpCnqnCn0g/kTYptb4+uk7nzXVqrzmXaCiXWuMaX0/VLlWXKU7kpuYwVWAeGWeNNTInAgQIECBAYPsCwszt19AKCBDYsIAwc8PFM/VdCaQCtqmCm0g/kTYR/K41LR1mThWmRQzO1Sa1f6p57CnMrOpY/jpFCHuuWhmHAAECBAgQ2L6AMHP7NbQCAgQ2LCDM3HDxTH03AqlHf7sWWgU4kRONbY9aV/02g6BImNnsrytMaltb27XVmPX2kXVFNkHbevpOwHa51MOz5ri5tSjbR9aX0yYV6EXC5bHrSu3VSKhab1PvL2ePRfaFNgQIECBAgACBoQLCzKFyriNAgMAEAsLMCRB1QWCEwBQn6nIDokjolXrvxPrrqTU0X28GllWwVw/4mv2n5txXgmZw2Rfq9Y2bG4rmhG+RvrvalGuP+KRC6tTrVZibGmuKfqI1awafqbmNuFVdSoAAAQIECBC4ISDMtBkIECCwoIAwc0F8Qx9eIBUC1oGmCIimCKP6TjSmAtAqdFsizKxbRgOvtkAteoq1r16R4LLt5sgN+Jr7JxV67mmPHf6bCwACBAgQIEBgVgFh5qy8OidAgEC/gDDTDiGwrEA00FxT0NQlFj2J2HZSs/mY9pwnM7vmX3+ku2qTmseQcDcaZqbmU4XTqZByihC78jjHPmxbd1s9csPaZe90oxMgQIAAAQJ7EhBm7qma1kKAwOYEhJmbK5kJ71AgEmieI0SKBFaReaRCpr71tr2WO2Zzi0SujwSMkXBxqOHYU6CpQHOowVSWOf1E5praYzv8NmFJBAgQIECAwIoEhJkrKoapECBwPAFh5vFqbsXrFEgFmqnXy1VFQqCx/USurwd6bSHbFsLMsaHq2MfMcx8pzzVtuwsitd3KHlvnXW5WBAgQIECAwF4EhJl7qaR1ECCwSQFh5ibLZtI7FkiFYPWlt32CdtvrTa7mCcMh/aROKUbW0fZYej1Q63rcOPqel/VQNXJNfbz6hxI1w9mmZ9uHIaXaRN57MzWfrkAy0nfXLTTF3qiC9bF7dcwe2/G3CEsjQIAAAQIEViAgzFxBEUwhLXD5/jfcaPT4I+9IXzBzi2o+a5jLzEvV/cwCwsyZgXVPgMBuBLoC2shpxSUR1j6/JW2MTYAAAQIECBAYIiDMHKKWcc2codecfWcscVTTyBrWFmSWC47MexRM4+K6Qf0lYeqUysv0Jcxcxt2oBAhsT2CLYaYgc3v7zIwJECBAgACB9QsIM2eu0RqDuJmXPGn3a/U7Z5jZN9Y55zFpYXV2Q0CYaTMQIEAgLpB69Dnek5YECBAgQIAAAQJbFRBmzli5MmgqT84JnGZEXqjrc9X0XOMsxGjYk4Aw0zYgQIAAAQIECBAgQIAAAQJxAWFm3Cq7pTAzm2wzF5wjZDzHGJsB3/FEhZk7Lq6lESBAgAABAgQIECBAgMDkAocPM+cKjKogs6pYapzm6833SGx7b8SuPnP6ioxTriHarr5DI+/zGHWp99v1PpE56865k9rWPuW8u+aSGiO1hpyaddn17btq/NTp45x5pNa0x9eFmXusqjURIECAAAECBAgQIECAwFwCwszap2SXyFN9oMqYMDN6bSTM7OsrZ5y6Sypkq4dXKc/UGpo16eu73ld0bX03Vu7c6qFvc90ps+Y8ctu3XT+kZlUwOSQ8b7t/pqjDXN/81tKvMHMtlTAPAgQIECBAgAABAgQIENiCgDCzEWZWRUuFcKkQLCcMqodgXYHQkD/vuyanv7a19oVtOUFcKjDMcYwGndEbc8gah1yT6xudf05AGgmg17y2oSZruE6YuYYqmAOBPIHmJ1Qv/YnVS4+fp6c1AQIECBAgQIAAgXECwsyOMHNMqNk8jVb1NTQMyg38ph4nJ2zLCTLrIW7OKcIh100xr7pDW3+pMVKvp/ofd6t/6a0CcgLiyN7tqkfXfHMcxq55C9cLM7dQJXMk8CWB6tO077nvwRt/uHSYuPT49gcBAgQIECBAgACBcwoIMxNh5pBQU5gZf1x/SCi49jAzdQNHTv3OEfgNDbkjYWXOfHPapiz38Lowcw9VtIY9CaSCwbbXU9fM7bPGOc29Zv0TIECAAAECBAgcV0CYGQgzI+FTtYXqj+v2bauc91Rcw8nMrnXlrKPNY49hZs5+6dojUwR+0ZpNEVZGgtLmWqdw2sO3bmHmHqpoDXsQaDtx2bauNQaHXWFqdE17qJ81ECBAgAABAgQIHEdAmNkTZg4JW7pOZTbDzpwQcOkwMydwzA3hcvqu35a5100xrzHjD/mWkjvnMfNLjTX09dw6DXHa+jXCzK1X0Pz3IBAN/braVWFi9XppUn8MvW5Ub9PVbqp+yv6ja9tDHa2BAAECBAgQIEDgGALCzJYwc0iIWQ8rU9fnBjxLhplTjt12S+Va9IXCkdOBqdqkQueh4w/5dpIKELv6zK1Z2U9qrCGvD5nHEKetXyPM3HoFzX/rAjlhX84JyMgJzsj7b0b76QpPBZpb36HmT4AAAQIECBAg0BQQZtbCzGjQ1RciRfrIDfByQ6GhoV7OvIaO0bTLXVtf8DbVnFLhXv3x7ZwTtkO+/aRCxGhAHF1T1/6N2JZjRD7Iaciahtht5Rph5lYqZZ57FMgNMkuDttBwTOCYer/NyCenp/oQaO5x91oTAQIECBAgQOC4AsLMU5gZCSAjWyT1iHnVR05oOCS8iwRP0U+07ptrM7xqrq/t9aZRKszsCsi6+k7NKafWXWsv+8idd90mZw6pELJ6PRUi9gWwkTG62lT1jO7p1Dwi99ne2ggz91ZR69maQDTQ7AsMo2Fml03zk9Gb7VKfnJ4KM6Nr3FrtzJcAAQIECBAgQOCYAocPM6cqezTI7Ao0hwSQqUAtGlh2zaktnKyHhalgqv561VfuScZIH6n5R8O6tr3QHL+af+p0Ydu863a5+66rv64+U/NuXpdaT3QvdNW3Wf/U3sn12XJ7YeaWq2fuexGIhH1ThJl9j4KXltFQtNlPam5l36mx91JL6yBAgAABAgQIENi/gDBz/zW2QgKzC0TD0NknssEBhJkbLJop71KgL9BMhZ3REDIVKrY9Ut68pjmXMfPeZSEtigABAgQIECBAYPcCwszdl9gCCcwvkHsyef4ZbWcEYeZ2amWmxxCIBJNNiZxrmp9m3hVWVn/e1Xc1h/LEZc74x6iiVRIgQIAAAQIECOxZQJi55+paG4EJBboCS6cyxyELM8f5uZrAOQRS70l5jjkYgwABAgQIECBAgACBawLCTDuBAIGwQM57mIY7PXhDYebBN4Dlr15AkLn6EpkgAQIECBAgQIDAwQSEmQcruOUSILAuAWHmuuphNgQIECBAgAABAgQIECCwbgFh5rrrY3YECOxcQJi58wJbHgECBAgQIECAAAECBAhMKiDMnJRTZwQIEMgTEGbmeWlNgAABAgQIECBAgAABAscWEGYeu/5WT4DAwgLCzIULYHgCBAgQIECAAAECBAgQ2JSAMHNT5TJZAgT2JiDM3FtFrYcAAQIECBAgQIAAAQIE5hQQZs6pq28CBAgkBISZtgiBdQvM+Wnmc/a9blWzI0CAAAECBAgQIDBcQJg53M6VBAgQGC0gzBxNqAMCswrMGTjO2fesKDonQIAAAQIECBAgsKCAMHNBfEMTIEBAmGkPEFiXQDNgnDNwHNr30OvWJW02BAgQIECAAAECBIYJCDOHubmKAAECkwgIMydh1AmB0QJlQFh+3XPfgzf1NWdwOKbvrvmOhtABAQIECBAgQIAAgZULCDNXXiDTI0Bg3wLCzH3X1+q2IdAXDFaBY9WmLfCsVllv09Wur01XuNn3533z2Ya+WRIgQIAAAQIECBDIExBm5nlpTYAAgUkFhJmTcuqMQLZA6oRj8/XoCc62dqlH2LuuiQSozROl2RAuIECAAAECBAgQILARAWHmRgplmgQI7FNAmLnPulrVNgRSQWa5irZTkalQslp9vV2kn7bxIo+iR9axjYqYJQECBAgQIECAAIG0gDCzxejy/W8oHn/kHWk9LVoF+NkYBOICwsy4lZYE5hBIBYGREDLyeHikn2aYmZpb1b781cnMOXaHPgkQIECAAAECBNYoIMxsVKUM4sqvc4aZS4w552bc23rmtNI3AWGmPUBgeYHIe2bWZznnycx6oJk6lRkJO5fXNQMCBAgQIECAAAEC0woIM2ueQrjpNhfL6Sz1tG8BYea+62t12xHIeS/Mtk88L1da//O2wLPeJhKg9oWZgszt7C0zJUCAAAECBAgQmFZAmNkIM895InPaUq6vN4+br68mZrQ+AWHm+mpiRscW6AohK5Wux7lzP8m87Gfop5SnTmweu4JWT4AAAQIECBAgsHcBYeb1CjtJOP1WZzq9qR73JyDM3F9NrYjAWAGnLscKup4AAQIECBAgQGDPAsLMWpjZdyqzCubqm6GtfTPAa14XuaYaY4q+IuM3xxu6xq61Oe26528h1jZWQJg5VtD1BPYn4OTl/mpqRQQIECBAgAABAtMJCDNPlqkThKnX6+Wot20+Zt3VT+TPh/Q15JqutUTX2NyaOXbTbWs9EdiOgDBzO7UyUwJzCtQfU/fJ5HNK65sAAQIECBAgQGDrAsLMmcLMcmNET2Gmwsy2vua4Jne+XWuMBKJbv3HMn8BUAsLMqST1Q4AAAQIECBAgQIAAAQJHEBBmzhRmdj1a3RZCpoLJaMhYbti+k5A5Y1ebf8g1wswjfOuwxqkEhJlTSeqHAAECBAgQIECAAAECBI4gIMzMCDOrDRF5b82thZmpzV5fT86j4zltU3PwOoE9Cggz91hVayJAgAABAgQIECBAgACBuQSEmYEws8KPfJhOKrzLOemYe8qynGfuNan5tm28nGty2s61yfVLYM0Cwsw1V8fcCBAgQIAAAQIECBAgQGBtAsLMjDCzLdRsnsBMhXfCzLXdAuZDYFkBYeay/kYnsDWBLX7SuQ83unmXjanhmGu79nqzzznG2Np9Zr4ECBAgQIDAugWEmQPCzLKkQ97nsuu6IX1NdU0qfG3bvjnX5LRd961idgTmERBmzuOqVwJ7FcgJmqoQceino3eNlTOHeh2GXjdlLftMxnpF5znGYcy1bfNrW3POGOcyi9pqR4AAAQIECBxDQJh5vc5l6Nb3XpjN7TBVmDg0GD3H+F23QE5Amet6jNvOKgl8SUCYaTcQINAnMPTUXHVdXzCVCq32HGaW5vWQ95ynR1PuOfshdfekxmp7PXVNNeYUeyw1f68TIECAAAECBNoEhJm1MLP8bdcnh0c/AKf+vprRR9DPFUymxpli/fVNlhN6uj0JHFVAmHnUyls3gX6BrhNvkaCp3ibVPnVSse1UZ6rPrpUNvW7KvdIVWu4tzIyemBwaZk61x6asrb4IECBAgACB4wgIM2u17jtFGPnwn7KreoA35JpoGJgKJrtC2a7Asj735vaPhrLN65zKPM43EisdLiDMHG7nSgJ7FYgEjNHwLRIg5ganXQFYvR5DQ9DouobWvt5/2Uc5z/oJw+af1cfpOiUbmXPbuM01RNuk3jYgJ8is1tu2zsi6yuvG7LGhdXQdAQIECBAgcGwBYWat/lOcJJyijz1sSQ57qKI1nENAmHkOZWMQ2I5AKohqe70vTIoETVUg1Qy2muFaV1jZFvL1hWRd1egKC6esXt2vHmJWoWZumNlm1gwbI+ua0rDNvs2wa2+cc49NWVt9ESBAgAABAscREGY2aj02hBt7/R62HoM9VNEaziUgzDyXtHEIrF8gFWRWoWMqLKuvNBpmtgWafWFXNYdIm2o+OXPpWuvYKk4dZqZq0XWKtfl+ndGTrKngOifI7GobmfNUe2xsPV1PgAABAgQIHFNAmNlS9zGPRwvyrj1qn/NhSse89ayawDUBYaadQIBAMxjqC6TmCppyTuPV5zBlmNl2EjT1SHXu7mmus7mWyj7iPGebrjA3FQhHAvFUUBxZ15AwMzq33JpqT4AAAQIECBxPQJg5cc2FmROD6o7AzgWEmTsvsOURGCDQF/rMETR1jRcJKiNtKoLUqcLUKccBlLdckrJde5gZMYiEhlPWIhWwVuFpX0gfWZc2BAgQIECAAIFKQJhpLxAgQGBBAWHmgviGJrBigZyAMTeYqi87Fe6lHn8eeqKzSd9cQ2pe1fW5Jzcj/dY/FKgexDbDuEiw3HYStK2fSN85oWB0nW23QGRdzT3UV4dIuLriW9HUCBAgQIAAgRUKCDNXWBRTIkDgOALCzOPU2koJDBFoC/lSJxjbHtduC/9SJ+qipy6b47XNr23tfe3aAsVmsNgMACO+OSFffV1dAWeqFvUAsppvV1hYn39XOJgbDOYGk9V8U+uaao9FaqYNAQIECBAgQKApIMy0JwgQILCggDBzQXxDEyCwWYHcUG+zC51h4qkQe4YhdUmAAAECBAgQmFRAmDkpp84IECCQJyDMzPPSmgABAoLM4XtAkDnczpUECBAgQIDAegSEmeuphZkQIHBAAWHmAYtuyQQIDBYQZA6mcyEBAgQIECBAYDcCwszdlNJCCBDYooAwc4tVM2cCBAgQIECAAAECBAgQWEpAmLmUvHEJECBwEhBm2gYECBAgQIAAAQIECBAgQCAuIMyMW2lJgACByQWEmZOT6pAAAQIECBAgQIAAAQIEdiwgzNxxcS2NAIH1Cwgz118jMySi4uJ/AAAgAElEQVRAgAABAgQIECBAgACB9QgIM9dTCzMhQOCAAsLMAxbdkjcv0PxE6Dk/IXrOvjdfCAsgQIAAAQIECBA4pIAw85Blt2gCBNYiIMxcSyXMg0BMoO3TtOcMHOfsO7ZirQgQIECAAAECBAisS0CYua56mA0BAgcTEGYerOCWu3qBVHjY9nrqmjGLHtr30OvGzNW1BAgQIECAAAECBM4hIMw8h7IxCBAg0CEgzLQ1CKxDoO3EZdvMthJmlnOPrmkdFTALAgQIECBAgAABAjEBYWbMSSsCBAjMIiDMnIVVpwSyBKKhX1e7KuCsXi8Hv+e+B1vnUG/T1a6vTdeJy74/75tPFpTGBAgQIECAAAECBFYgIMxcQRFMgQCB4woIM49beytfh0A0yCxnGw0MU6FntfLI+2+2fdhQM5xMrSH1+joqYRYECBAgQIAAAQIEYgLCzJiTVgQIEJhFQJg5C6tOCYQEckK+vraRR88jJyoj/bSFqpH3x8xZawhPIwIECBAgQIAAAQILCQgzF4I3LAECBEoBYaZ9QGBZgWjI1xcYRkLIucLMyPwjbZatgtEJECBAgAABAgQIxAWEmXErLQkQIDC5gDBzclIdEsgWiIR9awozywXW36ez6/05q3blr31tssFcQIAAAQIECBAgQGBBAWHmgviGJkCAgDDTHiCwDoHUY+R9gWDb+1o2w8Po+2PWx0nNqRwjFbIKMtexv8yCAAECBAgQIEBgOgFh5nSWeiJAgEC2gDAzm8wFBGYViDwy3pxA36eP19tG2tXb9IWVqdOkkffRnBVS5wQIECBAgAABAgRmEhBmzgSrWwIECEQEhJkRJW0ILCuwxmAwFWYuK2Z0AgQIECBAgAABAvMJCDPns9UzAQIEkgLCzCSRBgQWFVhjkFmCrHVeixbL4AQIECBAgAABAocQEGZOXObL97/hosfHH3nHxD33d7fUuNWslh7/rNgGIzChgDBzQkxdEdi5QPMR9J0v1/IIECBAgAABAgQItAoIMyfeGEK9iUF1R2DnAsLMnRfY8ggQIECAAAECBAgQIEBgUgFh5qScRSHMnBhUdwR2LiDM3HmBLY8AAQIECBAgQIAAAQIEJhUQZk7KKcycmFN3BHYvIMzcfYktkAABAgQIECBAgAABAgQmFDh8mDn1Scqu/pp/Xv17Vcuu99hstivbt7VNraNtvCnn2jd+dK2VRXTNE94HuiKwmIAwczF6AxMgQIAAAQIECBAgQIDABgWEmdc/sCcVKkZrGwkIyzb1QDJyTWr83D7qgWEzHK33NXau0eubQea5P0Ap5et1AnMJCDPnktUvgfkEmp8kfs5PFvchQPPVVc8ECBAgQIAAAQLbEBBmNsLMsaFmKlQs++8LD+vbJnXaMtI2cmKyaz7nnms5Xs6at3GLmSWBfgFhph1CYFsCVZh4z30P3ph4TpiZ07ZPZqp+tqVvtgQIECBAgAABAgSKQpjZEWYODTVTYWbOI+I5wV5b29T1a5pr5Z2as5uWwN4EhJl7q6j1bF0gFRK2vZ66pm6S03ZMmDnVOFuvp/kTIECAAAECBAjsT0CYmQgzc0PNOQLCyBz2FmZG1ry/29GKjiggzDxi1a15jQJtJy7b5rmVMLOce3RNa6yHOREgQIAAAQIECBDoEhBmBsLMnPdvnDLMrIoW+QCdNYeZbR/oU66tzzWyZrc1gT0ICDP3UEVr2LpANPTralcFnH3vZ1l/relVPbIeaVNdGz15GV3b1mto/gQIECBAgAABAscREGb2hJk5IWYzeIy+L2Z5XfTR6uiH9qTmknp9zPtsRtYdXW/dJhV+HueWtdK9CQgz91ZR69maQE7Y1xUg5ryPZl8IWe+n+fv6e3SWxtEws2pb/trsY2u1Ml8CBAgQIECAAAECpYAwsyXMHBJizhEQtm3RnJOfqdAwp68h6xvSf86a3cIE9iAgzNxDFa1hqwK5QWZXIJjz6HkqzKyf0mz7fWWdE2YKNLe6Q82bAAECBAgQIECgTUCYWQszx4SYQ8K+1DU5wV7uY+a5pzxTc80ZPxWyNted296tTmBLAsLMLVXLXPcoEA00oyFkKmyM9lNvlxOWttUousY91teaCBAgQIAAAQIE9icgzDyFmVOEmEPCvsg19blN9fh32U/Z75CTkznX9AWc5dq7Ptk9uub93Y5WdEQBYeYRq27NaxOIhH3REHJtYWZkbWurh/kQIECAAAECBAgQ6BM4fJg59fbICftSYWb5evSDcCJBZzVeFRZOOddUX11jt4Wa0TVPXTv9EVhCQJi5hLoxCdwq0Bf6pQLBnJOTqXGmfMw8NW/7gAABAgQIECBAgMAWBYSZW6zaRHP2+PZEkLohMEJAmDkCz6UEZhDICSar4XOvaX5qeSrAbD5y3rbsMR8QNAOjLgkQIECAAAECBAjMJiDMnI12/R1Xj5uvf6ZmSGC/AsLM/dbWyvYjkPthO/tZuZUQIECAAAECBAgQWJ+AMHN9NZl0Rl2BpVOZkzLrjMBgAWHmYDoXEjiLgCDzLMwGIUCAAAECBAgQIBAWEGaGqbbbsPkelOVKpvzQo+3KmDmB5QWEmcvXwAwIECBAgAABAgQIECBAYDsCwszt1MpMCRDYoYAwc4dFtSQCBAgQIECAAAECBAgQmE1AmDkbrY4JECCQFhBmpo20IECAAAECBAgQIECAAAEClYAw014gQIDAggLCzAXxDU2AAAECBAgQIECAAAECmxMQZm6uZCZMgMCeBISZe6qmtRAgQIAAAQIECBAgQIDA3ALCzLmF9U+AAIEeAWGm7UGAAAECBAgQIECAAAECBOICwsy4lZYECBCYXECYOTmpDgkQIECAAAECBAgQIEBgxwLCzB0X19IIEFi/gDBz/TUyQwIECBAgQIAAAQIECBBYj4Awcz21MBMCBA4oIMw8YNEtmQABAgQIECBAgAABAgQGCwgzB9O5kAABAuMFhJnjDfVAgAABAgQIECBAgAABAscREGYep9ZWSoDACgWEmSssiikRIECAAAECBAgQIECAwGoFhJmrLY2JESBwBAFh5hGqbI0ECBAgQIAAAQIECBAgMJWAMHMqSf0QIEBggIAwcwCaSwgQIECAAAECBAgQIEDgsALCzMOW3sIJEFiDgDBzDVUwBwIECBAgQIAAAQIECBDYioAwcyuVMk8CBHYpIMzcZVktigABAgQIECBAgAABAgRmEhBmzgSrWwIECEQEhJkRJW0IECBAgAABAgQIECBAgMA1AWGmnUCAAIEFBYSZC+IbmgABAgQIECBAgAABAgQ2JyDM3FzJTJgAgT0JCDP3VE1rIUCAAAECBAgQIECAAIG5BYSZcwvrnwABAj0CwkzbgwABAgQIECBAgAABAgQIxAWEmXErLQkQIDC5gDBzclIdEiBAgAABAgQIECBAgMCOBYSZOy6upREgsH4BYeb6a2SGBAgQIECAAAECBAgQILAeAWHmemphJgQIHFBAmHnAolsyAQIECBAgQIAAAQIECAwWEGYOpnMhAQIExgsIM8cb6oEAAQIECBAgQIAAAQIEjiMgzDxOrVe/0sv3v+Fijo8/8o7Vz9UEhwtUdVbra4bCzOF7yZUEzinwmQ+8s7jnvgfPOeRuxjqnXTlW9aVeu9lCFkKAAAECBAgQuElAmDnxhqgHNfWuBXRp6HOEmTljlG3VLV23qkXEVpB5q6cwM77HtCSwpEBfIFcP0PqCtGa7rrCtr13bWPUxU8Fh9frQOQ8JClNzqtc1p23ffpiqnyX3nLEJECBAgAABAgTaBYSZE++MtkAnEvJMPI1NdncOp5wwTZg57TbKsZ925HX3Jsxcd33M7ngCXSFYKsxsBpPN9m3Xd/1ZqV7vL3dOkfZt82uOW/77FKFgTh85bceEmVONc7w7xIoJECBAgAABAssLCDMnrkFXIHeOoG7ipZy9u3MYNU/O9p28FGaefQscckBh5iHLbtErFKhOKvadlsx9rXkKsu36SOjZxZUTsEbGiQauueXLCQ5z2o4JM6ugti3AzV2f9gQIECBAgAABAucVEGZO7C3MHA56rjCzDDAjYwkzh9fSlXEBYWbcSksCcwmkgswq+BoTZkauzQ3yUmFmFdS1rS8aXObOqa1GbY+2t51k7apv1bbt0fjqmtTJ2L5AWKA5152lXwIECBAgQIDAPAKHDzMjoVYO/ZAwM/e0YDmf6kRh5LH21Jyq9aXeH7Lt/UBT13TZta05VYspxq8HlJHx2tYXqVeq78qlLTDNXWeuZWT+zbq1zam+D8vfp9acs65mX0PmnHPfLtlWmLmkvrEJXHuMOhJmpYLDvlOX0Wtzg8NU+3qImAr7uhy6AsScD9eJhqllHVJWVa3qfUaDWYGmO54AAQIECBAgsA8BYeb1T9COBnqpsvcFh13BWP3Po4FQdbqwL2xLtRk6bsqg7/VIsNpcU+qanEC1LcxshnKpoDHqFqllpK/c9deDvzbLyJh1g+i9kZpnV/jZ5l/vqxn4plzH7M8lrhVmLqFuTALXBKJBZiRkW2OY2TfvZkgZOTk6dN/khI2pMLN+SrPt99UcU0Fvcy05e2Gog+sIECBAgAABAgSmERBmNsLMaHDTxR85KZkqXV9Y0xdUDQmg6nOJjJsTHLatc8gYQ67pq09bmFe2TwV/OTUv26ZCt5yQLndfpcaeo+6pMDMVvLfNqasubX+euq/W+rowc62VMa+jCERDrGjIVnfrOxlZtav3OySAS52Q7OozOla0Xd9+WXuYGd0DR7knrJMAAQIECBAgsHYBYWZHmFkVLje8izyOm9oUY8O7nCBrjlArN/Sr2ucGdpHAsDmXZoDY10db27a1DQnxqnH73i6grzapGqdej9Q9p48ux0gfuXWP9Jm6x9b0ujBzTdUwl6MKjA2zusK60rMMG/sCxapN+WvuPCJBozCzf1fnmh/1HrFuAgQIECBAgMCaBISZiTCzKlY01OwLZsq+Iv2sOczM9YiEZlWblF3fjRNxbQaIzXGb9RkbZnYFfG3z6ArBm2seGn722Q0NY5t95oaSkbrnnOZc0zfWnLkIM3O0tCUwn0Aq1Op7vRkYRt8jMnpicUwgOebaUjsSmKaqEl1nNV75a+qT31MnWiPzTtU8tS6vEyBAgAABAgQILCMgzAyEmdGgLBVeNcOyZpjTFVzV/zxyKi3Spj7XyLhdc53CZmioNeSW6Qoo2x7fj7StzyEneMt5xLxtnakaRwLxVN1TYzSvF2YO2ZFFIcwc5uYqAnMJRE9R1sevQrH6n3WFcak25evN/sa8n+UUYWabderx9qZP6gOI+jxT75PZDDYj842EnXPtMf0SIECAAAECBAiMExBm9oSZOUFdXyCXG9ZFgqi+uUVCqKHBU3Mt5b9HnVLzGjunyK3Qd9qyOX5b2yFzHNpv33qGWJb95cw/NUZzfjl916/NvS53XpF9sWQbYeaS+sYmQIAAAQIECBAgQIAAga0JCDNbwsxoONdW7JwgcsjjvZEgJ9VmyLi5ax3SPjfUGnKz9YWZzbAvenoy1zsakk4dZubWPbUuYeaQHXjrNcLMaRz1QoAAAQIECBAgQIAAAQLHEBBm1sLMMSFmtV2Emd03TsSmvLrtU8Xb/nzILRoNM6u+2z75PHd+9XXnnAwdGmZW4zXNcsPMZrib8p6y/8hemeJ+Ta3pHK8LM8+hbAwCBAgQIECAAAECBAgQ2IuAMPMUZk4ZiuQEOn0nEbvCu8hpuVSboeNGgr3UjdE1dtl3yq7PJFrDVJhZD/AiYWBXcNh0iLRLtYmcFK3aRE+5RsZsC3Yrp8ieSIWrbXUVZqbupGGvv+Q73jjsQlcRIECAAAECBAgQIECAAIGVCBw+zJy6DvXgptl33wfENAOjVAA01XtmRsdthnxdwWLEs2mU+wndEdeueUTCzPpau05h5rg17VLBa9ceGrJ/5ph/c+3Vv0dD9HptuiyEmZE7Kb+NMDPfzBUECBAgQIAAAQIECBAgsC4BYea66mE2BCYRSAWLkwyik0kEPGY+CaNOCBAgQIAAAQIECBAgQOAgAsLMgxTaMo8lED2BeiyVda5WmLnOupgVAQIECBAgQIAAAQIECKxTQJi5zrqYFYGkQFdg6VRmkm5VDYSZqyqHyRC4ReAzH3hncc99D55Fphyr+hoz5lT9nGXRtUGqeZdrr/9+jnk8+tZXXXR770PvK+q/n2MsfRIgQIAAAQIECEwrIMyc1lNvBM4q0Pb+mqn35DzrBA2WFBBmJok0ILCoQE6YmdO2b1Fr6+dcBRBmnkvaOAQIECBAgACBbQsIM7ddP7MnQGDjAsLMjRfQ9Hcn0AwSc4LFnLbCzFsF1hZmlic2y5ObvggQIECAAAECBNYlIMxcVz3MhgCBgwkIMw9WcMtdrUDXY805AWVOW2Hm+sPMcoYeQV/tLWtiBAgQIECAwIEFhJkHLr6lEyCwvIAwc/kamAGBvvdnrALKvvehrL/W1Kze+zLSprr2nKFoal31968s59f2Xp5daxvzvp99u/Ln3vPwTS+/+jUP3PTvqddzd7xAM1dMewIECBAgQIDAvALCzHl99U6AAIFeAWGmDUJgWYHUB820vd4VNvaFkF2PULddc64wM/VIfWTtkfnnBLmp3VAGlfXwsgouqz9rvp7qL/q6QDMqpR0BAgQIECBAYH4BYeb8xkYgQIBAp4Aw0+YgsJxAKsgsZxYJ66oVpMLM+inNtt9H+snRyg1FU+Fmm0eOT87c29p2BZX1P2+Gm2PHrF8v0JxSU18ECBAgQIAAgeECwszhdq4kQIDAaAFh5mhCHRAYJZAKNHPCuq2FmW0nJuuPhkfWHmkzqkC1i5uPj9f7bTutWb3efAx9yHwEmUPUXEOAAAECBAgQmEdAmDmPq14JECAQEhBmhpg0IjCrQOQ9M+sTGPqY+ZpOZkZCyGibZnGa75U51WPmQx8hH3pdtS5B5qy3n84JECBAgAABAtkCwsxsMhcQIEBgOgFh5nSWeiIwRqAr0IwEetW40VC03mdO/7nri54ULfuNvD9m1S51ejN3ntH2Qx8hHxNmCjKj1dGOAAECBAgQIHA+AWHm+ayNRIAAgVsEhJk2BYF1CQx538j6CpqnEFOnMZvBZptG7qeCd52E7DsxWX1qeSqobPOZYs45u6DtcfP6BwA1+xr6mHkZZN770PtypqYtAQIECBAgQIDAGQSEmWdANgQBAgS6BISZ9gYBAlsWGPLI/ZbXa+4ECBAgQIAAAQLLCwgzl6+BGRAgcGABYeaBi2/pBHYgIMzcQREtgQABAgQIECCwMQFh5sYKZroECOxLQJi5r3paDYEjCqQ+Ff2IJtZMgAABAgQIECAwn4Awcz5bPRMgQCApIMxMEmlAgAABAgQIECBAgAABAgRuCAgzbQYCBAgsKCDMXBDf0AQIECBAgAABAgQIECCwOQFh5uZKZsIECOxJQJi5p2paCwECBAgQIECAAAECBAjMLSDMnFtY/wQIEOgREGbaHgQIECBAgAABAgQIECBAIC4gzIxbaUmAAIHJBYSZk5PqkMCkAo++9MHi3o+9c9I+czpbevycuWpLgAABAgQIECBA4BwCwsxzKBuDAAECHQLCTFuDwLoFlg4Tlx5/3dUxOwIECBAgQIAAgSMKCDOPWHVrJkBgNQLCzNWUwkQIXAg8+tZXFfc+9L4bGkuHiW3jN+eodAQIECBAgAABAgSOJCDMPFK1rZUAgdUJCDNXVxITOqhAGRCWX/Ug8yLcXOlj5l3zPWj5LJsAAQIECBAgQOBAAsLMAxXbUgkQWJ+AMHN9NTGj4wn0BYNVmFn+Wn11vYdmvc1FMNryXptT9XMRtHYEsMeroBUTIECAAAECBAgcSUCYeaRqWysBAqsTEGauriQmdDCBVCBYhY/1YLL10e/GCc7IddF++j6AKDX/g5XTcgkQIECAAAECBA4gIMw8QJG3ssTL97/hYqqPP/KOrUzZPAmMFhBmjibUAYHBApEgcEzgmHpEvfl6ZKy2xUbWMRjJhQQIECBAgAABAgRWJiDMnLggVSDX7FZAl4YWZqaNtNifgDBzfzW1om0JpILASMDYfLy8LtA80dnUyT3x2bw+Nf9tVcNsCRAgQIAAAQIECKQFhJlpo6wWbYGckC5GyCnmpNW+BISZ+6qn1WxTIPKemfWVRU5U3hI6tnyQUKSfvtOdgsxt7jezJkCAAAECBAgQGCcgzBznd8vVXYGcoC4NzShtpMX+BISZ+6upFW1TIOfTzNtCyHLVve9tGXxPzXo/be+7WekKMre5z8yaAAECBAgQIEBgvIAwc7zhTT0IM4eDCjOH27lyuwLCzO3Wzsz3KVCGhPc+9L4bi4s8Zn4jYKx94nn1Z12PmZd/3tV3/drWNo057rMSVkWAAAECBAgQIECgXeDwYebUAdqQMLP5Ppt976/Z7D/yWHtqTtXWSL2vZ9v7gaau6brx2tacqsUU43f59RlEzKvrh8wxx2KuueTOO7e9b8DdAsJMu4MAAQIECBAgQIAAAQIECMQFhJnXP0E7GuilaPuCw7bgr2xf//NooFde07y2Gail2gwdN2XQ93okWG06pa7JCVTrfUXt+65pCzHbXMt2uetKXROpf70WUzjWQ8zoOsfslyNcK8w8QpWtkQABAgQIECBAgAABAgSmEhBmNsLMsaFm5KRkqnh9gWZXmNQWWrWFYUOCxvKaVMiaWlMz9OsKdlMBXnOc3Hml/Prq1+cZqVk0zOzzTs0/Vaux+3PIOqN746jthJlHrbx1EyBAgAABAgQIECBAgMAQAWFmR5g5NNRse/z23KFibsA3JmjM2XSpeQ0J2lJ95oafc80h5/HwSJjZdRo15TFkfZH9kdMmZ88coa0w8whVtkYCBAgQIECAAAECBAgQmEpAmJkIM3NDzaEn++oFHXv6LRVodW2eyLi5HtF1dQV4XeFwcw3RR81TNkPCvlSfbWtLXTP0kfAhXs1rhgalfSHsVN+w9tiPMHOPVbUmAgQIECBAgAABAgQIEJhLQJgZCDOjQVlfmJMTFPYFhqkQLCdQGnKKNBp8/f/t3THOJTt6HuA2nEx6N2AtYGA4uIaTCZQI0gKMDjyht2AtQ/ASHE6iFUhQomASAwocDJRIgVagyNAkgt1155amLocsfqxinWIVn05uTx8W+fH5eH7hf1V1Tu7A1mo/EiS2vjGuqKE25x1hZsuZXQ1rvT2yz9b+zDhemDlj1+2ZAAECBAgQIECAAAECBI4KCDN3wswzgVD0MyFbA7xegVLruukB2wZfUada7WdrirwJrqihNudTwsxcqNnyJVEtQXqkV7OMEWbO0mn7JECAAAECBAgQIECAAIEeAsLMTJgZDedyDYjcgbnOf+RR4iPBWSmIbPlCmta9HhkvzPy92pGz0TNMPNqLyPns8YPrTXMIM9/UTXsh8ByBv/nrv/ryJ3/6Z88puHOl//x3f/nDjN99//XL9u+dl/n4dG/d18chLUiAAAECBAgMLSDM3ISZZ0LMtcvCzPJ5j9gsV58NWffecZEajqzfOm9k/FGLHoHikTC1x7pD/7S8qDhh5kWwpiUwqMBv/ujrl5//0++CtDv/PDnM7FF7LfRbXl+CzvTP9t/XOXJ93F5bGpebf+9MpPOU6lvmeFtIe+d7xdoECBAgQIDAeALCzG9hZo8Qc21tSwi0d/dbLsha/i0SGNXGHF239ZHj3HEvrb3MXbPbM4n2cO/x+Nr6e2uU5m1dbxkfsThSy/aMpr2M9vbIPsf7sTdWRcLMsfqhGgK/+Ys//vLzP//byyCEmedpRwkztzsphZ/LmL3Xohq5OUr/Vgszrz7j0T0ZR4AAAQIECBA4KjB9mHkUrnTdNuxJx+x9juY6Nn0EPQ3wakFla+AZXXc7b3pNq2FqVHvsfp2/ZBsNMlObUh3pfiLmezVGg8dtr88Eq0e8ohZH99l6RmYaL8ycqdv2OrLAEvAsf64MMpf5hZnnT4Ew83eGR8PMH87hh877+W6bgQABAgQIECDwhwLCTKdiKoGWYPJOmKfUeafRW9YWZr6lk/bxZIG9YGcJH0t/0sfF07Hb14/Oc+aR9CX02/7ZfkbmGghux5Q+Q7M2JjLXXi3bGms1l3rR+/M/I4+Zb2v5xJ2Zy3rro+U9PudToPnkn1pqJ0CAAAECcwsIM+fu/3S7f0pIuD5uPl2DJtywMHPCptvyUAK1QGcNIZdQMf17Glbmwstc4LkXUKZ3bh69k7N29+IaGuYCzjRcjIxZrimNq9WyrpeOy9W4jN2bb+1n7pC13HU7Wpi57qdHiLm1qZ3/od6siiFAgAABAgQI/CggzHQUphIYKcwsBZYj1TjV4bhps8LMm+AtS+CbQCTI2YaJkb//JCjKfNlPazjZOr4W9pWCw97XbQPHUii5F5qerfPsAe8dZubqqX1JUPoFP+mXD7V+gVDJJPI+OOvpegIECBAgQIBATwFhZk9Ncw0vMFpQmPsc0JbPAB0eXIFVAWFmlcgAApcK1IKcSIDZ+gh57c7MdMOtj5pH7oTMjSn9W1pP+kh3dL3tPLk5So0+st7ZQ9M7zDwbPEa/AKh137Xz3zqf8QQIECBAgACBTwgIMz+hbA0CBAgUBISZjgaB+wVqn5m5homRYLO2m707LXOv3XlnZkvg2fqZlblHyqNzzPiY+RVhpiCz9m71OgECBAgQIDCqgDBz1M6oiwCBKQSEmVO02SYfIFAKdiIB5vazNGtb3Rub+7zMZb4jd2Yu1+2Fg5GgssdnWJY8onPnro88tl7rQ+313GdTHv2Sn73ranWsr7fWU5tXkFkT8joBAgQIECAwsoAwc+TuqI0AgdcLCDNf32IbfJjAEvJsvygmEmauW8w9bp4LIqPfer5+6VBrmLnWU/tm8Mjj2+k3mUdC0LTlaR17QWt0bPTb0c8cvzVAXOfYe1T8aNDZUl9LPXvzpme8pQZjCRAgQIAAAQIjCAgzRyOrvqgAACAASURBVOiCGggQmFZAmDlt622cAAECBAgQIECAAAECBA4ICDMPoLmEAAECvQSEmb0kzUOAAAECBAgQIECAAAECMwgIM2fosj0SIDCsgDBz2NYojAABAgQIECBAgAABAgQGFBBmDtgUJREgMI+AMHOeXtspAQIECBAgQIAAAQIECJwXEGaeNzQDAQIEDgsIMw/TuZAAAQIECBAgQIAAAQIEJhQQZk7YdFsmQGAcAWHmOL1QCQECBAgQIECAAAECBAiMLyDMHL9HKiRA4MUCwswXN9fWCBAgQIAAAQIECBAgQKC7gDCzO6kJCRAgEBcQZsatjCRA4N0C//x3f/nDBr/7/uuX7d9bd33m2ta1Rhvfy3C0fY1WTy/nI2d1uWZ5j7T8OXJNdP6r515/JkTruXvcG3qaMzyyr9HnWff0pDP2xJrvfk9a/70Cwsz39tbOCBB4gIAw8wFNUiKBjgK/+aOvX37+T78L7fz5qcCdAdFTelELjnoZftrjb/76r778yZ/+2UeW7bFWL+cjAVHpDOydjdq5OQN/9dxPCpqWWt/Q0xFCyNq5OuJcOue1tc68P6669pM1f3Ktq7zM+04BYWamrz/7xS+//PbXv3pnxx+8q6Uvy587e+NsPPgADVq6MHPQxihrWoHf/MUff/n5n//tZfsXZpZpewVElzVvgIlrv1Q+1bBHwBhtT4+17nSeKcyM9vTp40br6QietZ91PWv85Fq96v5kzZ9cq5ePeeYQEGYmfR4hMJvj6LXvcoTejFBDu5wrRhYQZo7cHbXNJLCEmMufK4PMZX5hpjDzzPuq9kvlnSHbmX31CBij6/dY607n0YKv2pmM9mXmcaP1dIRefPJcfXKtXrafrPmTa/XyMc8cAsLMTZ8FVWMf+lH6M0odY3dLdVEBYWZUyjgC1wnsBZlL+Fj6kz4uno7dvn50niOPpK9hzfLf9U/pEd69MdvXUoN0vnTsFY8MR37hX0Ompd7a5wpux6bjo2ttP99zNcqtu7fWct26Xqn+9PptP2r7PPrOifR0b0zkHPY6Y73XOmq2Xhc9P3tnZltD7ayW6l3PRu18te63dp7XM106p5/02fbkzPvmkzVH3u+9e7p3BiI/VyP1ROeJnOcj753Sz8oeYV3kPVF7X+TO6pmaazWVztn250atF2nNV/3fo9afUcbPISDM3PTZI8RjH/qRQkRnZeyz8qTqhJlP6pZa3yhQuyNzDSGXUDH9expW5sLLXOC5F1Cmd24euZNzDYi2gWLubrT033L/e+n5Ms92zpbrlutX49z5abkTdns3XO0XqNovp+nr6dwtwcX2l7dSjZExy57ScekvhrV99XqPRu5e3DsvSx3Rc7iO3QvAP7VWz7NaCrVbe5o7q9G5994npfdA7gztncvcmYy8v3LnPf23NfzZC0gi74laPZH3TeRnwta7peaWuVt6GtlXy5g968jPvqhPpO+RMT3eOxGfyBmM1Jsbc+RslObZvr8i79vWfuXevxE/YwgcFRBm/ig3UlB2tJlvv26kHo1Uy9v7/vb9CTPf3mH7G1mgFmQutW/DxMjft/vNBZGt4WTr+GX9SHCZ68teSLl9rfT37ZyRMOzI2ejxy2nkl8PtmMjft3spjS+NKf2S2/LL5hHL0jWR3pXG1M5G5Lq0rsg1LWc+sr+zni1nphYQRcPPXvPs7T1yJiPvr1LYciSkrd0J1lJPuvdSiFt7j/fqRa95zp7n9fpe9UTCv15j9n7uRva1ntXa2Vhebwmwoz2Jnt/WfUbey1Gf6F6MI9BbQJj5o+jenXZpcLX+77UZuS+kKV2zN3bb3NqX3ORqKAVsV9WS1rDUX6q7ZWzpkB/pwzJXpF/rmq1WtT71fsOa730Cwsz39dSOniVQCzQjAWbrI+S1OzNTwdZHzaPBTu4R39LdnHthZqnjn3jU/OgveqWac4/lro+Sb/+7/oJbC1+i9UV+cd9bs+e7LhL2fTJgjDyKHj3zi1Nkf2c9136W/hsJHkr9jp6p2hrRM9c6z3qHXs6w9Q7P2pmP7CFaT63nb+1pbd+1/q+v9w7Hor2tBYjp/mo/s1s8Upvt/47+PyHS9XLntbXmyJnv3a+jbq4jcEZAmPlNr3aX3fb1NPSMBIiloHQbsm1DsdK/L42urbeMSQO2vfrXw1Obd2/O2gGs+dauz9XY0oecbS10XV6vPUrea1/R/Rv3TgFh5jv7alfPEqh9ZuYaJkaCzdrO9+607HEn57J+JNhpHdN6Z+bWodeju+kvza13Ce390p37hTIXYtbuyFrmaR2TXrN3hiK/4NfOYO31SNj36TCzFoxHzvO677399TqrTwy+egUgLWc0dcqdzaPv85b3e+09sX2Pvi2gjuw9Ytk7HIuco9azceT/EdDisx2brnV0P0dqjq6V7u3M53MedXIdgTMCwsxverVQai9cXPBz19euKV23NrM1XNyb74paambbQ9kydu8w1/YRXWdvXG2NK/Z15g3s2ucLCDOf30M7eIdAKdCMBJjbz9KsaeyNzX1e5jLfFXdm1j6DcFk3EmDmPhexZnD29R4ByFJD7Y6eI2Fm7hfYdK2WX/pTqzVwqj1ae8Y40tPcmL2PKVjr2QtBlzG50DJaT+5LqY7Od8ZvubZnmLk9P3v9r7129E6xrUW6Rm7NljP6qfdy7f0e6feTe7oNqs/87PhkeBg5Ry31tL4/Imdib0zk/xbkfr7XPl95vaa299qZjwSe27Ui863jz5yxs+6un0tAmPmt37UQ7MjrR65Jj17LI8/LtUcC0L3r1nr2wtrIY9Y1i+hbrjZP7fW9/UReq/Unug/jCGwFhJnOA4GxBJZQc/ulNJEwc91B7nHzXBAZ/dbz9UuHrggzl5q3j++uX/LT+pj5uvfaI+s9u1z7pTS3VukxvXTs9jHz9Je30i+n2zki67Q+MpjWuA0mar9gnnFPe9r6DfYtd0um53H537X1tmN6r3XGbbm2FPLlgorSGVz/PQ2iIiHGem36sQnbtVrCjPS67fx7d45F9xZ536R7KtVUek+k75vW986Te3o2zMzZ1X4+ru+DI2c+d/a360Xq2b4P12sjP8Nbz0W6zt45zY3N/T8Z9t5f0b3X6mqZ50jdZ3+Gup5ARECY+U2pFoIdef3INWnDPh1m1g5M6VH45bq9UHN7t2Nt7F4NPUyX+SN3Zn4ypK25e/3dAsLMd/fX7ggQeK/A0TDovSJ2RoDAqAKROx1HrV1d/QX2/p8QR++sdMb698mM+wLCTGFmNcyNBIzrmCtDzaNhZhqm7tVaW2Nr0TLWDyICJQFhprNBgACBZwoIM5/ZN1UTmE1AyDRbx+v77R1mOmN1cyP6CwgzhZmnwsz1SB75rMnl2sgdkOkakS/v2bvGnZn9f5CY8biAMPO4nSsJECBwp4Aw8059axMgEBEQMkWU5hxz9qMXVjVnbM7zM8KuhZnCzC5h5nKYW+5UbBl7NMw88hmiLXW1jB3hza6GMQWEmWP2RVUECBAgQIAAAQIECBAgMKaAMPPHvizBVMsdf7WALRJ0td4hGBm/1JXu42wt0aMbWafmtrdWZP+5z/Vs8WjdQ8udpVFH4+YSEGbO1W+7JUCAAAECBAgQIECAAIFzAsLMTZiZCwKXf9t7hPrI3X9poJeu27reGsReUcu21jQojASHq190bCTMjAa2OY/a4/DRMDM67tzb09UzCAgzZ+iyPRIgQIAAAQIECBAgQIBALwFh5kaydHfmNrhKv0zmyN2cafNyX1Bz5It0zoSZuYB1W2eunqhFGgiXQuPaoT7Th3XudR+lUDMaUu7dyVvbh9cJbAWEmc4DAQIECBAgQIAAAQIECBCICwgzkzAzF7RFA644+zUjn1LnNbv/3KycP2c9w0rCzBm6bI8zCPT4APzth/F/9/3XIdh67OvIRs6se+baI7W2XnP0i4N67GvEM9bqZzwBAgQIECBAQJiZnIG9R5NH/3xEdwte/4YWZF5vPNsKwszZOm6/TxWoBVDRoKk2z+ITGXPGca/W9LXovvbqaf3G1LNrnr3+jG3t2pr9Xogd3Vfk/ETG1PbidQIECBAgQIDAXQLCzIx8GgqOFGBFHoW/6zDNsK7AeIYuf3aPwszPeluNQE2gFPL0Cn8i80TGHN3HGpau12/Ds6vu2kv3Ew3lansc8fVa7/Zer10b3W9knsiY2no95qit4XUCBAgQIECAQE5AmBk4FyOFmUu5rZ+xGdiiIQQI3CQgzLwJ3rIEEoFawNYruInMExkTaWBpT6XQ8lNh5hqojvIofcSyNqZ2ftbr3xRmrn1c/vumXtZ67XUCBAgQIEDgfgFh5v09UAEBAhMLCDMnbr6tDyNQe/S3VOga4ERCwNyj1uu8aRAUCTPT+UphUm5vuWvXNbfjI/uKNDG3n9Iea2uWHFt7sYyvrbUN6/YCu5YgMzdP5Gy01pr25dNnLHIujCFAgAABAgQIHBUQZh6Vcx0BAgQ6CAgzOyCagsAJgZYgqnb3WTSEPDtPuk5tD+nraWC5BnvbgC99/LxW814LovXmxtXq2AtFWwPeWuBXCmX3gs6tS+181F5fw9VaL3rME+3Zur/aGTzxFnUpAQIECBAgQOAPBISZDgUBAgRuFBBm3ohv6ekFWgKYHgFRjzDqSHi3rruGbneEmdvDVgvjtgHZVWFmLbjMvTlaA740yKyFnm86Y9P/cAFAgAABAgQIXCogzLyU1+QECBDYFxBmOiEE7hWIBpojBU0lseidiLk7NdPHtGshYkvXInbbwLUUfJbujMzte2/N6Dy5x79zIWgtpOwRYpcC3kjo2jom8th7Omf0fdRybowlQIAAAQIECJQEhJnOBgECBG4UEGbeiG9pAj8KRIKYSCD3iTGRNbaNze1tb7+l8dG7KVuDs72QrnQnZCnsTPe9F+7W7syMBp7bEHbPKNK3UcZE6qidMT9cCBAgQIAAAQJXCggzr9Q1NwECBCoCwkxHhMAYArVAs/b6GmrVQr+z80Su3waEy99b7iYcJcw8W8fZOzNbHylvDYhLoW+uX9GQttb36Dw9ztgY72pVECBAgAABAm8VEGa+tbP2RYDAIwSEmY9okyInEqiFYFuK3Ddo515P+dLHeI/MU3sEOrKP0uPZa6BWety4Ftjm9hu5Zrve9kuJ0pAunT99JD53XGuPzZfuxFznytVTCiRrd33uvZ16nI1l/h7znDljE/3IsFUCBAgQIEDgBgFh5g3oliRAgMAqIMx0FggQIBATKAW0rY9Fx1brN2r0+vrt1EwECBAgQIAAgc8ICDM/42wVAgQIZAWEmQ4GAQIEYgJPDDMFmbHeGkWAAAECBAgQaBEQZrZoGUuAAIHOAsLMzqCmI0Dg1QK1R59fvXmbI0CAAAECBAgQ+EFAmOkgECBA4EYBYeaN+JYmQIAAAQIECBAgQIAAgccJCDMf1zIFEyDwJgFh5pu6aS8ECBAgQIAAAQIECBAgcLWAMPNqYfMTIEBgR0CY6XgQIECAAAECBAgQIECAAIG4gDAzbmUkAQIEugsIM7uTmpAAAQIECBAgQIAAAQIEXiwgzHxxc22NAIHxBYSZ4/dIhQRSgfQbqu/+xuq713dCCBAgQIAAAQIECHxSQJj5SW1rESBAIBEQZjoSBJ4lsH6b9nfff/23wu8OE+9e/1kdVC0BAgQIECBAgMDTBYSZT++g+gkQeLSAMPPR7VP8CwVqwWDu9do1VzONWNPVezY/AQIECBAgQIDAvALCzHl7b+cECAwgIMwcoAlKIPBNIHfHZQ5mxOCwFKZG9+QAECBAgAABAgQIEHiSgDDzSd1SKwECrxMQZr6upTb0QIFo6Fcat4aJ6+sLwfYx9C3JdkxpXK95lvmje3tg25RMgAABAgQIECAwqYAwc9LG2zYBAmMICDPH6IMq5hVoCfta7oCM3MEZ+fzN6Dyl8FSgOe/ZtnMCBAgQIECAwFsFhJlv7ax9ESDwCAFh5iPapMiXCrQGmQtDLjQ8EzjWPm8z8s3ptTkEmi89wLZFgAABAgQIEJhUQJg5aeNtmwCBMQSEmWP0QRXzCkQDzb3AMBpmlpTTb0ZPx9W+Ob0WZkb3OO8psHMCBAgQIECAAIEnCQgzO3frZ7/4ZXbG3/76V51XMh0BAm8QEGa+oYv28HSBSNjXI8zcexR8MYyGouk8tdqWuWtrP72H6idAgAABAgQIEJhHQJjZuddrmLkNL3P/1nlZ0xEg8FABYeZDG6fs1wnsBZq1sDMaQtZCxdwj5ek1aS1n6n5dE22IAAECBAgQIEBgCgFhZuc2l4LLnoFmz7k6b990BAg0CggzG8EMJ3CxQCSYTEtouSb9NvNSWLn+e2nutYbljsuW9S/mMz0BAgQIECBAgACBywWEmZ2JhZmdQU1H4OUCwsyXN9j2XiFQ+0zKV2zSJggQIECAAAECBAg8RGD6MLP3XY5Hw8zcZ23mPmez5TM5o3MuZzWtO7127zM/j6yzfX/4PNGH/LRQ5iUCwsxLWE1KoJuAILMbpYkIECBAgAABAgQIdBEQZiZf2HM2WNsLM2vhZO5zNpcup9fVAthtuHhkzuX6yGd+tga3tbq7nGiTEHiYgDDzYQ1TLgECBAgQIECAAAECBAjcKiDM7Pzt461fALQX8LWGhetJOjNnS3jauo4w89b3usUHFRBmDtoYZREgQIAAAQIECBAgQIDAkALCzEKYuXar9U7NI4+BRx7hjtwpudQcCQx7BK61dVrXGPLdoSgCHxAQZn4A2RIECBAgQIAAAQIECBAg8BoBYWYlzGwNNfdCvGWuaCi5rtsaCtZCxlLgefQuy9o7ofSYe2pRm8frBN4qIMx8a2ftiwABAgQIECBAgAABAgSuEBBmBsLMlrszWx4N/1TwmB6cHgFppPbSgW35cqErDr05CYwkIMwcqRtqIUCAAAECBAgQIECAAIHRBYSZO2FmS4i5NrrlDsdIINgjeBwtzEytlv99xHr0N5f6CEQEhJkRJWMI3Cdw5beZXzn3fWJWJkCAAAECBAgQIHCtgDAzE2aeCdaEmW0HNhLots1oNIFnCQgzn9Uv1c4ncGXgeOXc83XKjgkQIECAAAECBGYREGZuwswzIeZ6YFrCzOWa1vG1a2qvtzwGX9tTjyCyxxyzvFnt850Cwsx39tWuniuQBoxXBo5H5z563XO7onICBAgQIECAAAECvxcQZn4LM3uEmEeDv+3nR5a+LCetrxYA9p6zFoAue88ZLtele2r9AiRvVgJvFxBmvr3D9vcUgSUgXP589/3Xn5R8ZXB4Zu5SvU/xVicBAgQIECBAgACBowLTh5lH4UrXpV9usx23F5rmrmsZXwoT0zpLcx65QzQNcCNr+fKf3ifOfE8XEGY+vYPqf4PAXjC4Bo7rmFzguRpsx5TG7Y0phZt7/75Xzxt6Yw8ECBAgQIAAAQIEUgFhpjNBgACBGwWEmTfiW5rAN4HaHY7p69E7OHPjao+wl66JBKjpHaWaS4AAAQIECBAgQOCtAsLMt3bWvggQeISAMPMRbVLkSwVqQeay7dxdkbVQcuXajovMk1sv8ih6ZB8vbaFtESBAgAABAgQITCggzJyw6bZMgMA4AsLMcXqhkjkFakFgJISMPB4emScNM2u1reOX/7ozc87za9cECBAgQIAAgRkFhJkzdt2eCRAYRkCYOUwrFDKxQOQzM7c8V96ZuQ00a3dlRsLOidtq6wQIECBAgAABAi8VEGa+tLG2RYDAMwSEmc/okyrfL9DyWZi5bzxfhLb/ngs8t2MiAepemCnIfP+ZtEMCBAgQIECAAIG8gDDTySBAgMCNAsLMG/EtTSAjUAoh16Glx7lbv8l8mefot5TX7tjUWAIECBAgQIAAAQJvFhBmvrm79kaAwPACwszhW6RAAh8XcNflx8ktSIAAAQIECBAg8CABYeaDmqVUAgTeJyDMfF9P7YjAWQF3Xp4VdD0BAgQIECBAgMCbBYSZb+6uvREgMLyAMHP4FimQwEcEto+p+2byj5BbhAABAgQIECBA4KECwsyHNk7ZBAi8Q0CY+Y4+2gUBAgQIECBAgAABAgQIfEZAmPkZZ6sQIEAgKyDMdDAIECBAgAABAgQIECBAgEBcQJgZtzKSAAEC3QWEmd1JTUiAAAECBAgQIECAAAECLxYQZr64ubZGgMD4AsLM8XukQgIECBAgQIAAAQIECBAYR0CYOU4vVEKAwIQCwswJm27LBE4IPPGbzn250U8bfqaHZ64tHbt0zivWOHHkXUqAAAECBAgQ+AMBYaZDQYAAgRsFhJk34luawAMFWoKmNUQ8+u3opbVaatgSH72uZ5v2TM56Res843Dm2lx9uT23rPEps6itcQQIECBAgMAcAsLMOfpslwQIDCogzBy0McoiMIjA0bvm1uv2gqlaaPXmMHNp7zbk/eTdozX3vaPXem1tfO712jVrfT3O2CBvM2UQIECAAAECDxMQZj6sYcolQOBdAsLMd/XTbgj0Eijd8RYJmrZjauNrdyrm7uqszVkyOHpdL9NlnlJo+bYwM3rH5NEws9cZ69lbcxEgQIAAAQLzCAgz5+m1nRIgMKCAMHPApiiJwM0CkYAxGr5FAsTW4LQUgG3Zjoag0X0dbdF2/mWOpc7tHYbpv23XKd0lG6k5t266h+iY2scGtASZ635z+4zsaw2Ie9V0tK+uI0CAAAECBOYSEGbO1W+7JUBgMAFh5mANUQ6BmwVqQVTu9b3AMhJmroFUGmyl4VoprMyFfHshWYm4FBb2bMnWbxtirqFma5iZM0uDvci+ehrm7HOGpbPxyTPWs7fmIkCAAAECBOYREGbO02s7JUBgQAFh5oBNURKBmwRqQeYaOtbCsm350TAzF2juhV1rDZExaz0ttZT2erY1vcPMWi9Kd7Gmn9cZvZO1Fly3BJmlsZGae52xs/10PQECBAgQIDCngDBzzr7bNQECgwgIMwdphDIIDCJQCzSvCppa7sbb1tAzzMzdCVp7fLm1bek+072sAV/E+coxR4LrXCBd8qmForWQ9kiYWTvbrb00ngABAgQIEJhXQJg5b+/tnACBAQSEmQM0QQkEBhPYC30iAVpr0FRaLxJURsas9fQM0I62rGY7epgZ2XckNOzZi8gdt5GaInszhgABAgQIECCwCAgznQMCBAjcKCDMvBHf0gQGFmgJGFuDqTTsXAO8lCMSVB69o7O2ViR0LNW919bIvNsvBdoGsel6kWA5dydobp7I3MuYaCgY3WfOKrKv9Azt3UEbrXngt6PSCBAgQIAAgcEEhJmDNUQ5BAjMJSDMnKvfdkugVSANliJBU+5x7XXdyGc1bgO8yGc5puvlHlHO7XtvXC5QTIPFK8PMbXC4rnOkF5F50jF7+2oNBiPnJe1N5JpeZ6z1/WA8AQIECBAgQGAREGY6BwQIELhRQJh5I76lCRB4rEBrqPfYjV5QeOSx8AuWNSUBAgQIECBAoJuAMLMbpYkIECDQLiDMbDdzBQECcwsIMo/3X5B53M6VBAgQIECAwDgCwsxxeqGSHwV+9otf/vC33/76V0wIvF5AmPn6FtsgAQIdBQSZHTFNRYAAAQIECBB4qIAw88LGraFcuoSQbh9dmHnhoTT1cALCzOFaoiACBAgQIECAAAECBAgQGFhAmHlRc/YCOWGdMPOiY2faBwoIMx/YNCUTIECAAAECBAgQIECAwG0CwswL6IWV51D5nfNz9bMEhJnP6pdqCRAgQIAAAQIECBAgQOBeAWFmZ39B3HlQhucNzfAcAWHmc3qlUgIECBAgQIAAAQIECBC4X2D6MLN3cHZ2vvRzNvc+XzNdK7f2kTHbYxl5XH47PlJvbfxZw/vfViogEBcQZsatjCQwikD6jdBXfkP0lXOP4qkOAgQIECBAgAABAi0Cwswfvzl7RTvz5TxnQ7jl+u36tfm2r6fXrvtpHZMenlINtdoigWiPuVsOu7EERhQQZo7YFTURKAvkvk37ysDxyrn1mQABAgQIECBAgMATBYSZSZh5JtRsCfiihyV6Z2QphN3e6Vkbk3u9R+AY2UNLiBu1M47AEwSEmU/okhpnEqiFh7nXa9ec8Ts699HrztTqWgIECBAgQIAAAQKfEBBmFsLMI6HmXWFm5NHuo2POhpk1k8ij8Z94I1iDwF0Cwsy75K1L4KcCuTsuc0ZPCTOX2qN7chYIECBAgAABAgQIPElAmFkJM1tCzVpwd+RgtN7VmK4RqenIGtHP9kzHlQzcmXnkdLjmDQLCzDd00R6eLhAN/Urj1oBzfX3x+O77r1mW7ZjSuL0xpTsu9/59r56n9079BAgQIECAAAEC8wkIMwNhZvRzNCPBYe2IlcK/lkfAt2tEajoSZq5r1ELNyPpHAtiao9cJPEVAmPmUTqnzrQLRIHPZfzQwrIWeq2Xk8zdzXzaUhpO1PdRef2tv7YsAAQIECBAgQOCdAsLMnTAzGmK2hoelo9T6yHUkKDw7JnL9sp/SZ3NGr+9l+M63qV29WUCY+ebu2tvoAi0h397YyKPnkTsqI/PkQtXI52O27HX0vqmPAAECBAgQIEBgbgFhZibMPBJirsfoSHi3DQPTtc/cNbk3bzQ8bNlPaxjbEurO/Ta1+zcLCDPf3F17e4JANOTbCwwjIeRVYWak/siYJ/RKjQQIECBAgAABAgQWAWHmJsw8E2JGw8HWAO/OMDPyTeiRfbcEotEA1tuXwFsEhJlv6aR9PFkgEvaNFGYu1tvP6Sx9Puc6bvnv3pgn907tBAgQIECAAAEC8wkIM7+Fmb1CzEiwt45ZAr7al97UwsRISHh0zFpf6fpI/du9rn8vffZnzWK+t6YdzyIgzJyl0/Y5ukDtMfK9QDD3uZZpeBj9fMztOrWaljVqIasgc/STpz4CBAgQIECAAIFWgenDzFawlvF73+S994U+afB35vMoI2Hmsl7pi3wid4buBZW5gDc1bHm0vsXfWAJPEBBmPqFLqCCH+AAADZNJREFUapxJIPLIeOqx9+3j27GRcdsxe2Fl7W7SyOdoztRXeyVAgAABAgQIEHiPgDDzPb20EwIEHiggzHxg05Q8ncCIwWAtzJyuSTZMgAABAgQIECAwjYAwc5pW2ygBAiMKCDNH7IqaCPxeYMQgc6lu1LqcHQIECBAgQIAAAQJXCwgzrxY2PwECBHYEhJmOBwECUYH0EfTodcYRIECAAAECBAgQeJOAMPNN3bQXAgQeJyDMfFzLFEyAAAECBAgQIECAAAECNwoIM2/EtzQBAgSEmc4AAQIECBAgQIAAAQIECBCICwgz41ZGEiBAoLuAMLM7qQkJECBAgAABAgQIECBA4MUCwswXN9fWCBAYX0CYOX6PVEiAAAECBAgQIECAAAEC4wgIM8fphUoIEJhQQJg5YdNt+fEC6TeJf/KbxX0J0OOPjw0QIECAAAECBAicFBBmngR0OQECBM4ICDPP6LmWwOcF1jDxu++//tviLWFmy9i93fWa5/OCViRAgAABAgQIECBwTkCYec7P1QQIEDglIMw8xediAt0FaiFh7vXaNdsiW8aeCTN7rdMd2IQECBAgQIAAAQIETgoIM08CupwAAQJnBISZZ/RcS6CfQO6Oy9zsTwkzl9qje+qnaCYCBAgQIECAAAEC1wsIM683tgIBAgSKAsJMh4PA/QLR0K80bg049z7PcvtauuP1kfXImPXa6J2X0b3d3wUVECBAgAABAgQIEIgJCDNjTkYRIEDgEgFh5iWsJiUQFmgJ+0oBYsvnaO6FkNt50r9vP6Nz2Vw0zFzHLv9N5wgjGUiAAAECBAgQIEBgIAFh5kDNUAoBAvMJCDPn67kdjyPQGmSWAsGWR89rYeb2Ls3c31e9ljBToDnOmVMJAQIECBAgQIDAeQFh5nlDMxAgQOCwgDDzMJ0LCXQRiAaa0RCyFjZG59mOawlLcyjRPXYBNQkBAgQIECBAgACBiwWEmRcDm54AAQJ7AsJM54PA/QKRsC8aQo4WZkb2dn8HVECAAAECBAgQIEAgLiDMjFsZSYAAge4CwszupCYkcEhgL/SrBYItd07W1un5mHmt7kNQLiJAgAABAgQIECBws4Aw8+YGWJ4AgbkFhJlz99/uxxNoCSbX6luvSb+1vBZgpo+c59TOfEHQeF1QEQECBAgQIECAAIGygDDT6SBAgMCNAsLMG/EtTSAo0PplO8FpDSNAgAABAgQIECBA4ICAMPMAmksIECDQS0CY2UvSPASuERBkXuNqVgIECBAgQIAAAQJHBYSZR+VcR4AAgQ4CwswOiKYgQIAAAQIECBAgQIAAgWkEhJnTtNpGCRAYUUCYOWJX1ESAAAECBAgQIECAAAECowoIM0ftjLoIEJhCQJg5RZttkgABAgQIECBAgAABAgQ6CQgzO0GahgABAkcEhJlH1FxDgAABAgQIECBAgAABArMKCDNn7bx9EyAwhIAwc4g2KIIAAQIECBAgQIAAAQIEHiIgzHxIo0pl/uwXv/zhpd/++lcP34nyCcwpIMycs+92TYAAAQIECBAgQIAAAQLHBISZx9xCV61BYzq4Z/AozAy1wiACwwoIM4dtjcIIECBAgAABAgQIECBAYEABYeZFTdkLGXsGkD3nuojCtAQI7AgIMx0PAgQIECBAgAABAgQIECAQFxBmxq3CIz8ZMH5yrTCAgQQIhAWEmWEqAwkQIECAAAECBAgQIECAwBdhZudD8Olw8dPrdeYyHYHpBYSZ0x8BAAQIECBAgAABAgQIECDQIDB9mNk7DOwxX+6zNkufsxl5nH09D3uf1ZnOk9ZQW3975iLrRMc3nGVDCTxSQJj5yLYpmgABAgQIECBAgAABAgRuEhBm/vht4JHAr9ajs0HmNkDcBoKlf1/qKa25/HtujlooubwevbZlv0f2VvP2OoE3CAgz39BFeyBAgAABAgQIECBAgACBTwkIM5Mw80yo2RLu5RocucsyDSNb1ozMv9SVCzxz1/Zeu+e3vH/qDWQdAmcFhJlnBV1PgAABAgQIECBAgAABAjMJCDMLYeaRULMl3EsPWeTaOwPFM2sf3dtMb0R7nVdAmDlv7+2cAAECBAgQIECAAAECBNoFhJmVMLMl1IyEdqUWRa49Eygu60buzIw8hr7uofVzNSOfpenuzPY3sSueLSDMfHb/VE+AAAECBAgQIECAAAECnxUQZgbCzGjAFgkkPxlm5r5IaFk/+hj5ttZIEFoKfiMukTGffWtYjcBnBISZn3G2CgECBAgQIECAAAECBAi8Q0CYuRNmRkPMaOi3d2QiYV7LnZktY5e6auvXXt/OkQamLdceMX/HW9EuZhUQZs7aefsmQIAAAQIECBAgQIAAgSMCwsxMmHkmUIsEd7lGRa6LBpSluSJ3V7Y8Zh7dx9G9HTnQriHwNAFh5tM6pl4CBAgQIECAAAECBAgQuFNAmLkJM8+EmNsmRsK7aBC4jmsJKFvG1uZfXm/ZT++173xzWJvAJwSEmZ9QtgYBAgQIECBAgAABAgQIvEVAmPktzOwVYrYEmkvol667/YzL7Wulfy8FjXt3cC7X7H1mZu71vYAyV2fL/Ht7e8ubzD4I7AkIM50PAgQIECBAgAABAgQIECAQF5g+zIxTtY8sfQFPKVBcV8hd1/r4d+mbxmuB6bJO6dqcQMvYbfi6neuKMLm9W64gcI+AMPMed6sSIECAAAECBAgQIECAwDMFhJnP7Fv3qlseJe++uAkJTCwgzJy4+bZOgAABAgQIECBAgAABAs0CwsxmsndeIMx8Z1/tanwBYeb4PVIhAQIECBAgQIAAAQIECIwjIMwcpxe3ViLMvJXf4hMLCDMnbr6tEyBAgAABAgQIECBAgECzgDCzmeydFwgz39lXuxpfQJg5fo9USIAAAQIECBAgQIAAAQLjCAgzx+mFSggQmFBAmDlh022ZAAECBAgQIECAAAECBA4LCDMP07mQAAEC5wWEmecNzUCAAAECBAgQIECAAAEC8wg8Msz817//xy//+vf/ME+X7JQAgSkE/v1//o+X7vM//Nf/cen8JidAgAABAgQIECBAgAABAlcLPC7MFGRefSTMT4DAXQLCzLvkrUuAAAECBAgQIECAAAECTxF4VJj55f/+izsyn3Ky1EmAQLOAMLOZzAUECBAgQIAAAQIECBAgMJnAs8LMyZpjuwQIEOgp4DHznprmIkCAAAECBAgQIECAAIE7BISZd6hbkwABAjcICDNvQLckAQIECBAgQIAAAQIECHQVEGZ25TQZAQIExhUQZo7bG5URIECAAAECBAgQIECAQExAmBlzMooAAQKPFxBmPr6FNkCAAAECBAgQIECAAIHpBYSZ0x8BAAQIzCIgzJyl0/ZJgAABAgQIECBAgACB9woIM9/bWzsjQIDATwSEmQ4EAQIECBAgQIAAAQIECDxdQJj59A6qnwABAkEBYWYQyjACBAgQIECAAAECBAgQGFZAmDlsaxRGgACBvgLCzL6eZiNAgAABAgQIECBAgACBzwsIMz9vbkUCBAjcIiDMvIXdogQIECBAgAABAgQIECDQUUCY2RHTVAQIEBhZQJg5cnfURoAAAQIECBAgQIAAAQIRAWFmRMkYAgQIvEBAmPmCJtoCAQIECBAgQIAAAQIEJhcQZk5+AGyfAIF5BISZ8/TaTgkQIECAAAECBAgQIPBWAWHmWztrXwQIEEgEhJmOBAECBAgQIECAAAECBAg8XUCY+fQOqp8AAQJBAWFmEMowAgQIECBAgAABAgQIEBhWQJg5bGsURoAAgb4Cwsy+nmYjQIAAAQIECBAgQIAAgc8LCDM/b25FAgQI3CIgzLyF3aIECBAgQIAAAQIECBAg0FFAmNkR01QECBAYWUCYOXJ31EaAAAECBAgQIECAAAECEQFhZkTJGAIECLxAQJj5gibaAgECBAgQIECAAAECBCYX6BJm/rf/+S//b3JH2ydAgMDwAv/nf/2X4WtUIAECBAgQIECAAAECBAgQ2BP4T//9f58G+nfCzNOGJiBAgMDlAsLMy4ktQIAAAQIECBAgQIAAAQIXCwgzLwY2PQECBEYREGaO0gl1ECBAgAABAgQIECBAgMBRAWHmUTnXESBA4GECwsyHNUy5BAgQIECAAAECBAgQIPAHAsJMh4IAAQKTCAgzJ2m0bRIgQIAAAQIECBAgQODFAsLMFzfX1ggQIECAAAECBAgQIECAAAECBAgQ+KmALwByIggQIECAAAECBAgQIECAAAECBAgQeISAMPMRbVIkAQIECBAgQIAAAQIECBAgQIAAAQLCTGeAAAECBAgQIECAAAECBAgQIECAAIFHCAgzH9EmRRIgQIAAAQIECBAgQIAAAQIECBAgIMx0BggQIECAAAECBAgQIECAAAECBAgQeISAMPMRbVIkAQIECBAgQIAAAQIECBAgQIAAAQLCTGeAAAECBAgQIECAAAECBAgQIECAAIFHCAgzH9EmRRIgQIAAAQIECBAgQIAAAQIECBAgIMx0BggQIECAAAECBAgQIECAAAECBAgQeISAMPMRbVIkAQIECBAgQIAAAQIECBAgQIAAAQLCTGeAAAECBAgQIECAAAECBAgQIECAAIFHCAgzH9EmRRIgQIAAAQIECBAgQIAAAQIECBAg8P8B1Vh8bQikBSkAAAAASUVORK5CYII=;" vertex="1" parent="1">
          <mxGeometry x="-550" y="320" width="462.48" height="213" as="geometry" />
        </mxCell>
        <mxCell id="t5BiKSE4qo9BICXZ52rH-5" value="" style="edgeStyle=orthogonalEdgeStyle;rounded=0;orthogonalLoop=1;jettySize=auto;html=1;" edge="1" parent="1" source="t5BiKSE4qo9BICXZ52rH-2" target="t5BiKSE4qo9BICXZ52rH-4">
          <mxGeometry relative="1" as="geometry" />
        </mxCell>
        <mxCell id="t5BiKSE4qo9BICXZ52rH-2" value="tÃ­tulo del datalist que al hacer click se carguen las imÃ¡genes" style="rounded=1;whiteSpace=wrap;html=1;" vertex="1" parent="1">
          <mxGeometry x="-533" y="240" width="120" height="60" as="geometry" />
        </mxCell>
        <mxCell id="t5BiKSE4qo9BICXZ52rH-3" style="edgeStyle=orthogonalEdgeStyle;rounded=0;orthogonalLoop=1;jettySize=auto;html=1;entryX=-0.001;entryY=0.228;entryDx=0;entryDy=0;entryPerimeter=0;" edge="1" parent="1" source="t5BiKSE4qo9BICXZ52rH-2" target="t5BiKSE4qo9BICXZ52rH-1">
          <mxGeometry relative="1" as="geometry">
            <mxPoint x="-570" y="370" as="targetPoint" />
            <Array as="points">
              <mxPoint x="-569" y="270" />
              <mxPoint x="-569" y="370" />
              <mxPoint x="-550" y="370" />
            </Array>
          </mxGeometry>
        </mxCell>
        <mxCell id="t5BiKSE4qo9BICXZ52rH-4" value="" style="whiteSpace=wrap;html=1;rounded=1;" vertex="1" parent="1">
          <mxGeometry x="-360" y="180" width="260" height="120" as="geometry" />
        </mxCell>
        <mxCell id="t5BiKSE4qo9BICXZ52rH-6" value="Objeto 3 vista" style="rounded=1;whiteSpace=wrap;html=1;" vertex="1" parent="1">
          <mxGeometry x="-180" y="190" width="70" height="30" as="geometry" />
        </mxCell>
        <mxCell id="t5BiKSE4qo9BICXZ52rH-7" value="Objeto 2 vista" style="rounded=1;whiteSpace=wrap;html=1;" vertex="1" parent="1">
          <mxGeometry x="-265" y="190" width="70" height="30" as="geometry" />
        </mxCell>
        <mxCell id="t5BiKSE4qo9BICXZ52rH-8" value="Objeto 1 vista" style="rounded=1;whiteSpace=wrap;html=1;" vertex="1" parent="1">
          <mxGeometry x="-350" y="190" width="70" height="30" as="geometry" />
        </mxCell>
        <mxCell id="t5BiKSE4qo9BICXZ52rH-9" value="Objeto 4 vista" style="rounded=1;whiteSpace=wrap;html=1;" vertex="1" parent="1">
          <mxGeometry x="-350" y="240" width="70" height="30" as="geometry" />
        </mxCell>
        <mxCell id="t5BiKSE4qo9BICXZ52rH-10" value="Objeto 5 vista" style="rounded=1;whiteSpace=wrap;html=1;" vertex="1" parent="1">
          <mxGeometry x="-265" y="240" width="70" height="30" as="geometry" />
        </mxCell>
        <mxCell id="t5BiKSE4qo9BICXZ52rH-14" value="" style="edgeStyle=orthogonalEdgeStyle;rounded=0;orthogonalLoop=1;jettySize=auto;html=1;" edge="1" parent="1" source="t5BiKSE4qo9BICXZ52rH-11" target="t5BiKSE4qo9BICXZ52rH-13">
          <mxGeometry relative="1" as="geometry" />
        </mxCell>
        <mxCell id="t5BiKSE4qo9BICXZ52rH-11" value="Objeto 6 vista" style="rounded=1;whiteSpace=wrap;html=1;" vertex="1" parent="1">
          <mxGeometry x="-180" y="240" width="70" height="30" as="geometry" />
        </mxCell>
        <mxCell id="t5BiKSE4qo9BICXZ52rH-15" style="edgeStyle=orthogonalEdgeStyle;rounded=0;orthogonalLoop=1;jettySize=auto;html=1;entryX=0.995;entryY=0.361;entryDx=0;entryDy=0;entryPerimeter=0;" edge="1" parent="1" source="t5BiKSE4qo9BICXZ52rH-13" target="t5BiKSE4qo9BICXZ52rH-1">
          <mxGeometry relative="1" as="geometry">
            <mxPoint x="-30" y="420" as="targetPoint" />
            <Array as="points">
              <mxPoint x="5" y="380" />
              <mxPoint x="-29" y="380" />
              <mxPoint x="-29" y="420" />
              <mxPoint x="-90" y="420" />
            </Array>
          </mxGeometry>
        </mxCell>
        <mxCell id="t5BiKSE4qo9BICXZ52rH-13" value="al hacer click que se cargue completo" style="whiteSpace=wrap;html=1;rounded=1;" vertex="1" parent="1">
          <mxGeometry x="-55" y="225" width="120" height="60" as="geometry" />
        </mxCell>
      </root>
    </mxGraphModel>
  </diagram>
</mxfile>
